<?xml version="1.0" encoding="UTF-8"?>
<svg version="1.1" xmlns="http://www.w3.org/2000/svg" width="1024" height="1024">
<path d="M0 0 C0.66 0.66 1.32 1.32 2 2 C1.83183277 5.11187811 1.53458487 8.09628108 1.12890625 11.17993164 C1.01203964 12.13539383 0.89517303 13.09085602 0.77476501 14.07527161 C0.38113398 17.27162644 -0.02822873 20.46576933 -0.4375 23.66015625 C-0.71842409 25.9163368 -0.99835412 28.17264132 -1.27734375 30.42906189 C-2.02159155 36.426876 -2.77901722 42.42295549 -3.53924561 48.41876221 C-4.28487648 54.3153601 -5.01913881 60.21336844 -5.75390625 66.11132812 C-6.77199803 74.27498531 -7.79327097 82.4382319 -8.81892395 90.60094261 C-10.55655955 104.43150373 -12.27971668 118.26378851 -13.98022461 132.0989666 C-14.23984378 134.20973838 -14.50008004 136.32043437 -14.76098633 138.43104744 C-16.60809139 153.19138273 -16.60809139 153.19138273 -18 168 C-18.99 168 -19.98 168 -21 168 C-21.40557129 167.13556274 -21.40557129 167.13556274 -21.81933594 166.25366211 C-28.85219617 151.30514967 -36.25442112 136.59155272 -44 122 C-48.46845708 122 -50.46558738 124.97770408 -53.5 127.9375 C-57.83693509 132.07709724 -62.18861808 136.07127074 -66.875 139.8125 C-70.8981595 143.03456186 -74.54172379 146.43295699 -78.1328125 150.125 C-79.8829456 151.88245583 -81.681158 153.51011416 -83.5625 155.125 C-87.60354501 158.6001393 -91.48795673 162.2299947 -95.375 165.875 C-100.38769633 170.57309453 -105.43362456 175.22446289 -110.5546875 179.8046875 C-117.08434267 185.66677409 -123.52229495 191.63134763 -129.96435547 197.58935547 C-135.93298828 203.10871748 -141.94405963 208.57632746 -148 214 C-149.667057 215.49956619 -151.33371995 216.99957053 -153 218.5 C-154.22589844 219.60214844 -154.22589844 219.60214844 -155.4765625 220.7265625 C-157.22443671 222.3012727 -158.96901138 223.8796501 -160.7109375 225.4609375 C-161.59007812 226.25757813 -162.46921875 227.05421875 -163.375 227.875 C-164.16648437 228.59429687 -164.95796875 229.31359375 -165.7734375 230.0546875 C-168 232 -168 232 -170.1640625 233.5703125 C-172.25899815 235.04652248 -172.25899815 235.04652248 -174 238 C-175.01074834 238.95064979 -176.05619328 239.86512746 -177.125 240.75 C-180.5582268 243.61581065 -183.88903759 246.57946806 -187.203125 249.58203125 C-189 251 -189 251 -192 252 C-192 252.66 -192 253.32 -192 254 C-194.95425198 258.18983029 -198.23339403 260.69422159 -203.31802368 261.5743103 C-206.65981693 261.68280496 -209.94917766 261.68190617 -213.28814125 261.55852318 C-215.53163153 261.47893081 -217.77112716 261.44875348 -220.01591492 261.43147278 C-226.38894835 261.37418777 -232.75900763 261.23344705 -239.12963867 261.05200195 C-243.04262206 260.94396014 -246.95290915 260.89571819 -250.86730003 260.88186073 C-252.34631338 260.8644812 -253.82526115 260.82442709 -255.30297279 260.76000023 C-264.47071059 260.36060546 -264.47071059 260.36060546 -272.29891968 264.61734009 C-275.14328904 267.54496435 -277.55286067 270.73819887 -280 274 C-281.22287565 275.27654813 -282.46581088 276.53515091 -283.75 277.75 C-286.7312557 280.67460476 -289.44225999 283.78013944 -292.1640625 286.9453125 C-294.75053962 289.83996562 -297.51328795 292.53841053 -300.30078125 295.23828125 C-302.19089136 297.09309306 -302.19089136 297.09309306 -304 300 C-304.66 300 -305.32 300 -306 300 C-306.21527344 300.54398438 -306.43054688 301.08796875 -306.65234375 301.6484375 C-308.46379641 304.80929113 -310.95496023 307.12763796 -313.5625 309.625 C-317.22714016 312.96402902 -317.22714016 312.96402902 -320 317 C-320.66 317 -321.32 317 -322 317 C-322.22300781 317.55171875 -322.44601562 318.1034375 -322.67578125 318.671875 C-324.41554097 321.7305676 -326.65764482 323.8073812 -329.1875 326.25 C-333.08812654 330.05927994 -336.78521343 333.95832887 -340.32421875 338.10546875 C-342.13977378 340.15801931 -344.04759536 342.07746006 -346 344 C-349.14578336 347.10375954 -352.07294016 350.31876298 -354.953125 353.66796875 C-357.58166688 356.66270063 -360.28926718 359.57975602 -363 362.5 C-366.7607258 366.55456845 -370.46413779 370.64162496 -374.078125 374.828125 C-377.26044853 378.42440931 -380.54434816 381.92810175 -383.82617188 385.43359375 C-385.92028764 387.68293006 -387.92812733 389.90093226 -389.734375 392.390625 C-390.15203125 392.92171875 -390.5696875 393.4528125 -391 394 C-391.66 394 -392.32 394 -393 394 C-393.11139953 386.68942013 -393.14315578 379.38145586 -393.12207031 372.07006836 C-393.12400535 369.58821884 -393.143526 367.10631344 -393.18164062 364.62475586 C-393.52813 340.69292706 -393.52813 340.69292706 -387.19921875 333.15234375 C-385.49905594 331.40231076 -383.76741166 329.6820895 -382 328 C-380.52902634 326.10890142 -379.08658793 324.19488311 -377.6875 322.25 C-368.58276072 310.07281337 -359.27682903 298.0462576 -350 286 C-348.33304708 283.83355349 -346.66652587 281.66677503 -345 279.5 C-344.16667453 278.41666062 -343.3333412 277.33332728 -342.5 276.25 C-341.88125 275.445625 -341.88125 275.445625 -341.25 274.625 C-337.5 269.75 -337.5 269.75 -336.25048828 268.12573242 C-335.41540154 267.04005444 -334.58044102 265.95427935 -333.74560547 264.8684082 C-331.69010638 262.19513835 -329.63211885 259.52388373 -327.5703125 256.85546875 C-323.08169339 251.04312095 -318.64266614 245.19774968 -314.25 239.3125 C-308.14832793 231.1432373 -301.88449353 223.1044476 -295.61035156 215.06738281 C-293.31177536 212.11645145 -291.028775 209.15373431 -288.75 206.1875 C-287.97140625 205.17558594 -287.1928125 204.16367187 -286.390625 203.12109375 C-284.6649908 200.86818244 -282.94665829 198.61065652 -281.234375 196.34765625 C-280.77708008 195.74606689 -280.31978516 195.14447754 -279.84863281 194.5246582 C-278.96972527 193.3681088 -278.09391377 192.209198 -277.22167969 191.04760742 C-274.22503941 187.1125197 -274.22503941 187.1125197 -272 186 C-269.93823301 185.95118074 -267.87477789 185.96899141 -265.81298828 186.0168457 C-264.51048126 186.04208817 -263.20797424 186.06733063 -261.86599731 186.09333801 C-261.16679295 186.1077424 -260.46758858 186.1221468 -259.7471962 186.13698769 C-255.24870549 186.21715388 -250.74942036 186.22933078 -246.2503376 186.25208759 C-242.30563087 186.2758636 -238.3643638 186.324397 -234.42089844 186.4284668 C-216.47276764 187.77932117 -216.47276764 187.77932117 -200.38598633 182.04272461 C-197.70898993 179.26593875 -195.77598233 176.28307913 -194.02351379 172.86045837 C-192.22542608 169.59204385 -189.79457182 166.8136192 -187.4375 163.9375 C-186.52699395 162.77183259 -185.61907312 161.6041368 -184.71484375 160.43359375 C-182.06217588 157.04731085 -179.29814787 153.76640732 -176.5 150.5 C-172.71806378 146.08427223 -169.06732652 141.59081778 -165.5 137 C-161.86908357 132.32806971 -158.15330655 127.75111142 -154.3125 123.25 C-149.76289411 117.91803346 -145.3357045 112.50730112 -141 107 C-140.53464844 106.40912598 -140.06929687 105.81825195 -139.58984375 105.20947266 C-136.38851637 101.14333657 -133.19263823 97.07296127 -130 93 C-136.52757733 88.33694875 -143.15805196 83.93643609 -150 79.75 C-150.89485107 79.19787842 -151.78970215 78.64575684 -152.71166992 78.0769043 C-157.24510983 75.28392796 -161.79349501 72.51825778 -166.36328125 69.78515625 C-167.19794922 69.28338867 -168.03261719 68.78162109 -168.89257812 68.26464844 C-170.47983159 67.31216825 -172.07087582 66.36597083 -173.66601562 65.42675781 C-175.47763719 64.33862464 -177.24460743 63.17669172 -179 62 C-179 61.34 -179 60.68 -179 60 C-154.74276816 51.64316114 -130.43361794 43.44457184 -106.09375 35.33203125 C-105.39562195 35.09934335 -104.6974939 34.86665545 -103.97821045 34.62691641 C-95.35332029 31.75250046 -86.7275641 28.88068829 -78.10149193 26.00982177 C-70.68459203 23.54131441 -63.26829425 21.07100032 -55.85203457 18.60057032 C-43.18541994 14.38122579 -30.51839475 10.16311626 -17.85084534 5.94657898 C-11.90010506 3.96575908 -5.94975483 1.98377802 0 0 Z " fill="#2B9E52" transform="translate(729,274)"/>
<path d="M0 0 C2.59907919 3.89861879 2.27787309 7.1575063 2.25396729 11.6791687 C2.25708727 12.57658567 2.26020725 13.47400263 2.26342177 14.39861405 C2.27142499 17.4179897 2.26506903 20.43716567 2.25878906 23.45654297 C2.26149793 25.61633421 2.26505827 27.77612453 2.26940918 29.93591309 C2.27854893 35.81193974 2.2749821 41.68789639 2.26865101 47.56392431 C2.26359792 53.70620256 2.26828065 59.8484747 2.27142334 65.99075317 C2.27506555 76.30911335 2.27025777 86.62744494 2.26074219 96.94580078 C2.24986292 108.88081751 2.25337837 120.81576588 2.264395 132.75078094 C2.27346748 142.98863272 2.27475316 153.2264639 2.26951766 163.46431839 C2.26639701 169.58287115 2.26599113 175.70139177 2.27259064 181.81994247 C2.27836267 187.57366895 2.27436972 193.32730723 2.26280212 199.08102417 C2.26015454 201.1946002 2.2609223 203.30818364 2.26532745 205.42175674 C2.27078053 208.30355982 2.26395146 211.18507909 2.25396729 214.06686401 C2.25842873 214.90626207 2.26289017 215.74566013 2.26748681 216.61049449 C2.23908361 220.82810475 2.05897552 224.19885499 0 228 C-1.82966614 229.38023376 -1.82966614 229.38023376 -4.08129883 230.45678711 C-4.92959763 230.87221771 -5.77789642 231.28764832 -6.65190125 231.71566772 C-7.57759415 232.14852081 -8.50328705 232.5813739 -9.45703125 233.02734375 C-10.41893875 233.4929068 -11.38084625 233.95846985 -12.37190247 234.43814087 C-15.51161941 235.95333854 -18.66174824 237.44540338 -21.8125 238.9375 C-23.97972978 239.97822609 -26.14623194 241.02046875 -28.31201172 242.06420898 C-32.59503202 244.12537327 -36.8820251 246.17784103 -41.17333984 248.22167969 C-45.97415335 250.50840871 -50.76655263 252.81160905 -55.55078125 255.1328125 C-60.12939818 257.35350348 -64.71069484 259.5683937 -69.296875 261.7734375 C-74.18624538 264.12471382 -79.07085106 266.48560395 -83.953125 268.8515625 C-85.94923133 269.8181238 -87.94540028 270.78455565 -89.94158936 271.75094604 C-91.20913345 272.36495086 -92.47643558 272.97945549 -93.74346924 273.59451294 C-97.48826284 275.41209741 -101.23903186 277.21611837 -105 279 C-105.73508789 279.34885254 -106.47017578 279.69770508 -107.22753906 280.05712891 C-110.48557794 281.53766327 -112.3186096 282 -116 282 C-115.67 281.34 -115.34 280.68 -115 280 C-114.87756962 277.34625148 -114.81431199 274.71701637 -114.79467773 272.06201172 C-114.78477814 271.24241974 -114.77487854 270.42282776 -114.76467896 269.57839966 C-114.73302467 266.86219192 -114.70829103 264.14596668 -114.68359375 261.4296875 C-114.66302761 259.5492405 -114.64203123 257.66879817 -114.62062073 255.7883606 C-114.5653649 250.83343269 -114.51597112 245.87846283 -114.46777344 240.92346191 C-114.41758402 235.86950943 -114.36188461 230.81561806 -114.30664062 225.76171875 C-114.19901612 215.84119801 -114.09758069 205.92062426 -114 196 C-114.66 195.67 -115.32 195.34 -116 195 C-115.34 195 -114.68 195 -114 195 C-114.14100857 192.72886197 -114.28796755 190.45809275 -114.4375 188.1875 C-114.55931641 186.29064453 -114.55931641 186.29064453 -114.68359375 184.35546875 C-114.87184547 181.00818107 -114.87184547 181.00818107 -116 178 C-115.34 178 -114.68 178 -114 178 C-114.0169693 177.13635834 -114.0339386 176.27271667 -114.05142212 175.38290405 C-114.20970332 167.23219254 -114.35787432 159.08137281 -114.49477577 150.93027306 C-114.56550755 146.74001041 -114.64010623 142.54989196 -114.72363281 138.35986328 C-114.80414106 134.31403266 -114.87437316 130.26814065 -114.93757248 126.22200394 C-114.96343704 124.68063442 -114.99296412 123.13932174 -115.02626419 121.59809494 C-115.07237897 119.4344126 -115.1053043 117.27089193 -115.13525391 115.10693359 C-115.15746002 113.87671478 -115.17966614 112.64649597 -115.20254517 111.3789978 C-114.81985311 104.99466565 -112.95282914 101.43482288 -108.375 97.0625 C-107.47265625 96.19625 -106.5703125 95.33 -105.640625 94.4375 C-102.86640393 91.87668055 -100.06292839 89.36562491 -97.1953125 86.91015625 C-94.41578043 84.4916666 -91.70853241 81.99721059 -89 79.5 C-85.72164417 76.4805284 -82.43418426 73.47797328 -79.0625 70.5625 C-75.47041409 67.45035876 -71.98448008 64.23127914 -68.5 61 C-64.41698978 57.21368312 -60.30230283 53.48232951 -56.08984375 49.83984375 C-53.35629362 47.43329774 -50.67889298 44.96693297 -48 42.5 C-44.03663556 38.85139321 -40.03949028 35.25118728 -35.96875 31.72265625 C-33.74675273 29.77840864 -31.56144777 27.79663036 -29.375 25.8125 C-24.72306257 21.61144266 -19.97358941 17.53498901 -15.20410156 13.46899414 C-10.05330751 9.06870792 -5.00455183 4.56636527 0 0 Z " fill="#0450A8" transform="translate(684,427)"/>
<path d="M0 0 C0.66 0 1.32 0 2 0 C2.94810195 16.70892906 3.16402285 33.38170436 3.16725707 50.11486173 C3.16797784 52.21793893 3.17013053 54.32100997 3.17275429 56.42408562 C3.18191883 63.78264646 3.18609855 71.14118949 3.18530273 78.49975586 C3.18469716 85.33249973 3.19536475 92.1651659 3.2110464 98.99789006 C3.22411578 104.90494834 3.22948722 110.81198106 3.22884732 116.71905369 C3.22859313 120.23056784 3.23140428 123.74201186 3.24202538 127.25351143 C3.25349664 131.14893822 3.24896347 135.04425632 3.24291992 138.93969727 C3.24853943 140.09340317 3.25415894 141.24710907 3.25994873 142.43577576 C3.25575424 143.49628143 3.25155975 144.55678711 3.24723816 145.64942932 C3.24778293 146.56753671 3.24832769 147.48564409 3.24888897 148.43157291 C2.9729118 151.27953852 2.15884476 153.39566261 1 156 C0.67 156.99 0.34 157.98 0 159 C-1.65925608 160.67404445 -3.32752821 162.33915875 -5 164 C-7.05976922 166.48090629 -8.99730052 169.0499942 -10.9375 171.625 C-11.50106201 172.36717773 -12.06462402 173.10935547 -12.64526367 173.87402344 C-17.34329503 180.08100151 -21.95473583 186.35083024 -26.55639648 192.62939453 C-30.97021449 198.63869274 -35.46814771 204.57934548 -40 210.5 C-45.74500163 218.00727207 -51.40280644 225.57141132 -56.99658203 233.19189453 C-60.60128746 238.10254849 -64.22127256 243.00068941 -67.875 247.875 C-68.3501001 248.50946045 -68.8252002 249.1439209 -69.31469727 249.79760742 C-72.17867068 253.61040506 -75.07333978 257.39788761 -77.98828125 261.171875 C-85.45843479 270.86182585 -92.66160516 280.52404186 -99 291 C-99.99 290.67 -100.98 290.34 -102 290 C-102.02282678 261.23473961 -102.040517 232.46948028 -102.05106533 203.70421261 C-102.05231599 200.30598222 -102.05361032 196.90775185 -102.05493164 193.50952148 C-102.05519395 192.83301273 -102.05545626 192.15650397 -102.05572652 191.45949494 C-102.0600744 180.51450968 -102.0679571 169.56952969 -102.0771528 158.62454755 C-102.08651386 147.38879128 -102.09198599 136.15303764 -102.09408849 124.91727728 C-102.09539178 118.60852793 -102.09845351 112.29979052 -102.10573006 105.991045 C-102.11252566 100.05105783 -102.11460974 94.11108749 -102.11310768 88.1710968 C-102.11338242 85.9930862 -102.11536651 83.81507503 -102.11920547 81.63706779 C-102.12419801 78.65805416 -102.12297781 75.67910367 -102.12025452 72.7000885 C-102.12316736 71.84305881 -102.1260802 70.98602912 -102.12908131 70.10302883 C-102.09243253 55.21838615 -102.09243253 55.21838615 -99.29541016 52.09887695 C-98.55081543 51.73238037 -97.8062207 51.36588379 -97.0390625 50.98828125 C-96.18940918 50.54830811 -95.33975586 50.10833496 -94.46435547 49.6550293 C-93.52736816 49.21199463 -92.59038086 48.76895996 -91.625 48.3125 C-90.64547363 47.81468018 -89.66594727 47.31686035 -88.65673828 46.80395508 C-86.54422374 45.73244021 -84.42459081 44.67486838 -82.29882812 43.62988281 C-77.90572636 41.459342 -73.56412849 39.195054 -69.21923828 36.92993164 C-65.82013049 35.15891162 -62.4141522 33.40159431 -59.0078125 31.64453125 C-50.71196149 27.34792626 -42.48610687 22.92444682 -34.26000977 18.49633789 C-25.49373563 13.78300057 -16.6853854 9.15601102 -7.84082031 4.59130859 C-6.95104492 4.13062988 -6.06126953 3.66995117 -5.14453125 3.1953125 C-3.97434448 2.59227295 -3.97434448 2.59227295 -2.78051758 1.97705078 C-1.03271759 1.12596279 -1.03271759 1.12596279 0 0 Z " fill="#084393" transform="translate(438,305)"/>
<path d="M0 0 C2.42951062 2.42951062 2.24533253 3.72226944 2.28216553 7.03857422 C2.27968811 7.73732666 2.27721069 8.4360791 2.2746582 9.15600586 C2.27976913 9.8927504 2.28488007 10.62949493 2.29014587 11.38856506 C2.30407758 13.83073996 2.30308242 16.27263377 2.30078125 18.71484375 C2.30466631 20.40873826 2.30900059 22.10263179 2.31376648 23.79652405 C2.32123645 27.34997717 2.32093189 30.90333094 2.31567383 34.45678711 C2.30987911 39.01458981 2.3268063 43.57198615 2.3500185 48.12972164 C2.36473795 51.62897629 2.36562998 55.12813268 2.36250877 58.6274128 C2.36302292 60.30796679 2.36827815 61.98852615 2.37832069 63.66905022 C2.39063302 66.01783655 2.38392531 68.3658264 2.37231445 70.71459961 C2.37995819 71.41132782 2.38760193 72.10805603 2.39547729 72.82589722 C2.36510673 75.6000401 2.33818561 77.52036233 0.7116394 79.82723999 C-1.07242532 81.04962349 -2.8193482 82.08981357 -4.75854492 83.04956055 C-5.88198555 83.61111092 -5.88198555 83.61111092 -7.02812195 84.18400574 C-7.83739639 84.58090103 -8.64667084 84.97779633 -9.48046875 85.38671875 C-10.32611893 85.80742142 -11.1717691 86.22812408 -12.04304504 86.66157532 C-14.75509508 88.00921679 -17.47117191 89.34850578 -20.1875 90.6875 C-21.96577126 91.56910401 -23.74376894 92.4512601 -25.52148438 93.33398438 C-29.01555369 95.06804935 -32.51085462 96.79958866 -36.00732422 98.52880859 C-40.61905128 100.81040456 -45.22774924 103.09794746 -49.83203125 105.39453125 C-50.45208542 105.70283371 -51.07213959 106.01113617 -51.71098328 106.32878113 C-56.01513549 108.47845169 -60.26461975 110.71906703 -64.5 113 C-71.63355691 116.83544359 -78.85711003 120.46845685 -86.11621094 124.05957031 C-87.94183049 124.97096048 -89.75737728 125.89960859 -91.5703125 126.8359375 C-92.64023437 127.38507813 -93.71015625 127.93421875 -94.8125 128.5 C-95.74707031 128.9846875 -96.68164062 129.469375 -97.64453125 129.96875 C-100 131 -100 131 -103 131 C-104.94892542 108.82395556 -104.94892542 108.82395556 -98.39453125 100.8359375 C-94.88083737 97.19454372 -91.05741576 93.97943731 -87.11669922 90.8125 C-84.39403814 88.48112332 -82.17168097 85.87527475 -79.86669922 83.13989258 C-76.18298383 78.91706163 -72.11583562 75.05481367 -68.125 71.125 C-66.41699476 69.4424115 -64.71114749 67.75762867 -63.0078125 66.0703125 C-62.26160645 65.33570801 -61.51540039 64.60110352 -60.74658203 63.84423828 C-58.93306123 62.10805576 -58.93306123 62.10805576 -58 60 C-57.34 60 -56.68 60 -56 60 C-55.7525 59.38125 -55.505 58.7625 -55.25 58.125 C-53.76259631 55.59641373 -52.56321991 55.28160996 -50 54 C-49.74863281 53.44256104 -49.49726563 52.88512207 -49.23828125 52.31079102 C-47.46513263 49.00186916 -44.84838292 46.62335964 -42.1875 44.02734375 C-41.61797607 43.46302139 -41.04845215 42.89869904 -40.46166992 42.317276 C-38.64581011 40.51918856 -36.82339702 38.72794116 -35 36.9375 C-33.17748457 35.14263487 -31.3564599 33.34632006 -29.53833008 31.54701233 C-28.40811145 30.42901482 -27.27522989 29.31370144 -26.1394043 28.20140076 C-23.80129494 25.89300342 -21.8300135 23.74502026 -20 21 C-19.34 21 -18.68 21 -18 21 C-17.34 19.68 -16.68 18.36 -16 17 C-15.34 17 -14.68 17 -14 17 C-13.773125 16.44441406 -13.54625 15.88882813 -13.3125 15.31640625 C-11.62302816 12.33468957 -9.46497875 10.3129083 -7 7.9375 C-4.31789712 5.34506045 -2.07210825 3.10816238 0 0 Z " fill="#084394" transform="translate(439,574)"/>
<path d="M0 0 C2.59907919 3.89861879 2.27787309 7.1575063 2.25396729 11.6791687 C2.25708727 12.57658567 2.26020725 13.47400263 2.26342177 14.39861405 C2.27142499 17.4179897 2.26506903 20.43716567 2.25878906 23.45654297 C2.26149793 25.61633421 2.26505827 27.77612453 2.26940918 29.93591309 C2.27854893 35.81193974 2.2749821 41.68789639 2.26865101 47.56392431 C2.26359792 53.70620256 2.26828065 59.8484747 2.27142334 65.99075317 C2.27506555 76.30911335 2.27025777 86.62744494 2.26074219 96.94580078 C2.24986292 108.88081751 2.25337837 120.81576588 2.264395 132.75078094 C2.27346748 142.98863272 2.27475316 153.2264639 2.26951766 163.46431839 C2.26639701 169.58287115 2.26599113 175.70139177 2.27259064 181.81994247 C2.27836267 187.57366895 2.27436972 193.32730723 2.26280212 199.08102417 C2.26015454 201.1946002 2.2609223 203.30818364 2.26532745 205.42175674 C2.27078053 208.30355982 2.26395146 211.18507909 2.25396729 214.06686401 C2.25842873 214.90626207 2.26289017 215.74566013 2.26748681 216.61049449 C2.23908361 220.82810475 2.05897552 224.19885499 0 228 C-1.82966614 229.38023376 -1.82966614 229.38023376 -4.08129883 230.45678711 C-4.92959763 230.87221771 -5.77789642 231.28764832 -6.65190125 231.71566772 C-7.57759415 232.14852081 -8.50328705 232.5813739 -9.45703125 233.02734375 C-10.41893875 233.4929068 -11.38084625 233.95846985 -12.37190247 234.43814087 C-15.51161941 235.95333854 -18.66174824 237.44540338 -21.8125 238.9375 C-23.97972978 239.97822609 -26.14623194 241.02046875 -28.31201172 242.06420898 C-32.59503202 244.12537327 -36.8820251 246.17784103 -41.17333984 248.22167969 C-45.97415335 250.50840871 -50.76655263 252.81160905 -55.55078125 255.1328125 C-60.12939818 257.35350348 -64.71069484 259.5683937 -69.296875 261.7734375 C-74.18624538 264.12471382 -79.07085106 266.48560395 -83.953125 268.8515625 C-85.94923133 269.8181238 -87.94540028 270.78455565 -89.94158936 271.75094604 C-91.20913345 272.36495086 -92.47643558 272.97945549 -93.74346924 273.59451294 C-97.48826284 275.41209741 -101.23903186 277.21611837 -105 279 C-105.73508789 279.34885254 -106.47017578 279.69770508 -107.22753906 280.05712891 C-110.48557794 281.53766327 -112.3186096 282 -116 282 C-115.67 281.34 -115.34 280.68 -115 280 C-114.87756962 277.34625148 -114.81431199 274.71701637 -114.79467773 272.06201172 C-114.78477814 271.24241974 -114.77487854 270.42282776 -114.76467896 269.57839966 C-114.73302467 266.86219192 -114.70829103 264.14596668 -114.68359375 261.4296875 C-114.66302761 259.5492405 -114.64203123 257.66879817 -114.62062073 255.7883606 C-114.5653649 250.83343269 -114.51597112 245.87846283 -114.46777344 240.92346191 C-114.41758402 235.86950943 -114.36188461 230.81561806 -114.30664062 225.76171875 C-114.19901612 215.84119801 -114.09758069 205.92062426 -114 196 C-114.66 195.67 -115.32 195.34 -116 195 C-115.34 195 -114.68 195 -114 195 C-114.14100857 192.72886197 -114.28796755 190.45809275 -114.4375 188.1875 C-114.55931641 186.29064453 -114.55931641 186.29064453 -114.68359375 184.35546875 C-114.87184547 181.00818107 -114.87184547 181.00818107 -116 178 C-115.34 178 -114.68 178 -114 178 C-114.0169693 177.13635834 -114.0339386 176.27271667 -114.05142212 175.38290405 C-114.20970332 167.23219254 -114.35787432 159.08137281 -114.49477577 150.93027306 C-114.56550755 146.74001041 -114.64010623 142.54989196 -114.72363281 138.35986328 C-114.80414106 134.31403266 -114.87437316 130.26814065 -114.93757248 126.22200394 C-114.96343704 124.68063442 -114.99296412 123.13932174 -115.02626419 121.59809494 C-115.07237897 119.4344126 -115.1053043 117.27089193 -115.13525391 115.10693359 C-115.15746002 113.87671478 -115.17966614 112.64649597 -115.20254517 111.3789978 C-114.81985311 104.99466565 -112.95282914 101.43482288 -108.375 97.0625 C-107.47265625 96.19625 -106.5703125 95.33 -105.640625 94.4375 C-102.86640393 91.87668055 -100.06292839 89.36562491 -97.1953125 86.91015625 C-94.41578043 84.4916666 -91.70853241 81.99721059 -89 79.5 C-85.72164417 76.4805284 -82.43418426 73.47797328 -79.0625 70.5625 C-75.47041409 67.45035876 -71.98448008 64.23127914 -68.5 61 C-64.41698978 57.21368312 -60.30230283 53.48232951 -56.08984375 49.83984375 C-53.35629362 47.43329774 -50.67889298 44.96693297 -48 42.5 C-44.03663556 38.85139321 -40.03949028 35.25118728 -35.96875 31.72265625 C-33.74675273 29.77840864 -31.56144777 27.79663036 -29.375 25.8125 C-24.72306257 21.61144266 -19.97358941 17.53498901 -15.20410156 13.46899414 C-10.05330751 9.06870792 -5.00455183 4.56636527 0 0 Z M-3.2578125 5.25390625 C-4.16273438 6.16011719 -5.06765625 7.06632812 -6 8 C-7.6073024 9.33411403 -9.23321156 10.64606205 -10.875 11.9375 C-16.37214615 16.37836097 -21.51407913 21.13389627 -26.6550293 25.97949219 C-30.36605534 29.47725179 -34.11461999 32.90364901 -37.98046875 36.23046875 C-40.69486193 38.6088442 -43.34572387 41.05508905 -46 43.5 C-49.90974355 47.10020455 -53.85866671 50.64417782 -57.875 54.125 C-60.61823418 56.54550075 -63.30884568 59.02200642 -66 61.5 C-69.90981595 65.10012756 -73.85866468 68.64417605 -77.875 72.125 C-80.61823418 74.54550075 -83.30884568 77.02200642 -86 79.5 C-89.30028923 82.53888018 -92.60949283 85.56156045 -96 88.5 C-96.57152172 89.01550258 -97.14304344 89.53100515 -97.731884 90.06212902 C-100 92 -100 92 -102.96773148 94.13615131 C-107.78514941 97.77235971 -111.39291756 100.87893689 -113.09127045 106.81274986 C-113.62339188 111.34139988 -113.48754864 115.8560062 -113.36230469 120.4050293 C-113.35891408 122.1406175 -113.360831 123.87622289 -113.36761475 125.61180115 C-113.37103973 130.29435132 -113.3008058 134.97316705 -113.21672726 139.65485358 C-113.14139645 144.55802131 -113.13463816 149.46128733 -113.12042236 154.36494446 C-113.08321543 163.63729881 -112.9848703 172.9079429 -112.86422849 182.17954618 C-112.72981196 192.74042193 -112.66404947 203.30138204 -112.60388327 213.86290109 C-112.47865876 235.57621974 -112.26777011 257.28800187 -112 279 C-110.56849698 278.53220399 -109.1377939 278.06195967 -107.70742798 277.59069824 C-106.51221496 277.19829578 -106.51221496 277.19829578 -105.29285622 276.797966 C-102.27831221 275.74883627 -99.45071456 274.4358449 -96.5859375 273.03125 C-95.42352539 272.465271 -94.26111328 271.89929199 -93.06347656 271.31616211 C-91.83393527 270.71087447 -90.60444414 270.10548494 -89.375 269.5 C-87.44520059 268.55690785 -85.51452964 267.61561499 -83.5838623 266.67430115 C-82.28315266 266.03986645 -80.98277795 265.4047446 -79.68273926 264.76893616 C-72.65027286 261.33152658 -65.57848074 257.97696156 -58.49755859 254.640625 C-53.57085916 252.30046584 -48.77776039 249.8256441 -44.05395508 247.09716797 C-41.8963128 245.94461307 -39.72468074 245.05098821 -37.4375 244.1875 C-27.10438704 240.20461281 -17.33092327 234.74743302 -7.5625 229.5625 C-6.91772705 229.22057617 -6.2729541 228.87865234 -5.60864258 228.52636719 C-2.61529674 227.03374563 -2.61529674 227.03374563 0 225 C0.09793251 222.14267276 0.12992391 219.30951505 0.12025452 216.45176697 C0.12110894 215.54436392 0.12196337 214.63696087 0.12284368 213.70206076 C0.12450127 210.63721038 0.11897258 207.57241377 0.11352539 204.50756836 C0.11324355 202.32025656 0.11340119 200.13294467 0.1139679 197.94563293 C0.114256 191.98719628 0.10835714 186.02877955 0.10139394 180.07034755 C0.09516259 173.85098161 0.09455678 167.63161528 0.09336853 161.4122467 C0.09060885 150.96680358 0.08435336 140.52136732 0.07543945 130.07592773 C0.066266 119.31518592 0.05918484 108.5544461 0.05493164 97.79370117 C0.05453756 96.79942573 0.05453756 96.79942573 0.05413551 95.78506391 C0.05283051 92.45987074 0.05156904 89.13467756 0.05032361 85.80948436 C0.03985774 58.20631779 0.02225704 30.60315941 0 3 C-1.41375823 2.88225095 -1.41375823 2.88225095 -3.2578125 5.25390625 Z " fill="#0B4382" transform="translate(684,427)"/>
<path d="M0 0 C1.53262473 0.02429523 3.06535154 0.04277734 4.59811401 0.05574036 C8.60236173 0.10501435 12.60032284 0.23232878 16.60211182 0.37689209 C20.69741754 0.51070829 24.79375597 0.56942394 28.890625 0.63476562 C36.90650826 0.77353597 44.91731276 0.99490256 52.9296875 1.26953125 C52.9296875 1.59953125 52.9296875 1.92953125 52.9296875 2.26953125 C30.4896875 2.26953125 8.0496875 2.26953125 -15.0703125 2.26953125 C-15.7303125 3.58953125 -16.3903125 4.90953125 -17.0703125 6.26953125 C-18.67128253 8.37812593 -20.29111579 10.45395917 -21.9453125 12.51953125 C-24.78507054 16.11280725 -27.40452977 19.48611861 -29.2578125 23.70703125 C-31.19778125 27.52007327 -32.99591329 29.12183102 -36.265625 31.7109375 C-40.39951563 35.28111577 -43.39394718 39.60936184 -45.4453125 44.64453125 C-47.79816705 49.89320678 -51.38748371 53.88823494 -55.0703125 58.26953125 C-56.69890423 60.22487864 -58.32393999 62.18319354 -59.9453125 64.14453125 C-60.68523437 65.02882813 -61.42515625 65.913125 -62.1875 66.82421875 C-63.81754021 68.94124193 -64.94726835 70.86600686 -66.0703125 73.26953125 C-67.5703125 75.01953125 -67.5703125 75.01953125 -69.0703125 76.26953125 C-69.7303125 76.26953125 -70.3903125 76.26953125 -71.0703125 76.26953125 C-71.1115625 76.95015625 -71.1528125 77.63078125 -71.1953125 78.33203125 C-72.24403211 81.85273281 -73.83480029 83.5771228 -76.26953125 86.26171875 C-78.97691269 89.28036097 -81.45933653 92.4701306 -83.98046875 95.64453125 C-85.39599073 97.42253269 -86.82078249 99.19318662 -88.25390625 100.95703125 C-88.95644531 101.82328125 -89.65898437 102.68953125 -90.3828125 103.58203125 C-91.01832031 104.36191406 -91.65382813 105.14179687 -92.30859375 105.9453125 C-94.09340818 108.20510928 -94.09340818 108.20510928 -95.421875 110.57421875 C-97.70722947 114.31093578 -100.40136262 117.6636299 -103.1328125 121.08203125 C-103.67486328 121.77490234 -104.21691406 122.46777344 -104.77539062 123.18164062 C-105.29681641 123.83583984 -105.81824219 124.49003906 -106.35546875 125.1640625 C-106.82863525 125.76065674 -107.30180176 126.35725098 -107.78930664 126.97192383 C-108.21203857 127.40013428 -108.63477051 127.82834473 -109.0703125 128.26953125 C-109.7303125 128.26953125 -110.3903125 128.26953125 -111.0703125 128.26953125 C-111.3796875 129.25953125 -111.3796875 129.25953125 -111.6953125 130.26953125 C-113.24914568 133.65971273 -115.23569607 136.29006898 -117.53515625 139.20703125 C-119.12980789 141.25433377 -119.12980789 141.25433377 -120.37548828 143.61987305 C-122.0703125 146.26953125 -122.0703125 146.26953125 -124.31225586 148.40161133 C-129.68922884 153.58796944 -131.58060511 157.39206552 -131.92642212 164.76266479 C-131.96544715 169.50214233 -131.82208962 174.22192868 -131.6328125 178.95703125 C-131.58759467 180.93024672 -131.54654297 182.90356229 -131.50976562 184.87695312 C-131.41132476 189.6769814 -131.25645537 194.47213629 -131.0703125 199.26953125 C-130.0803125 198.27953125 -130.0803125 198.27953125 -129.0703125 197.26953125 C-127.5853125 196.27953125 -127.5853125 196.27953125 -126.0703125 195.26953125 C-123.18732925 192.62555179 -121.03767917 189.56832087 -118.765625 186.40234375 C-116.71133736 183.81791736 -114.42195176 181.5871381 -112.0703125 179.26953125 C-105.26783779 172.20405129 -98.6432044 165.03562444 -92.65625 157.2578125 C-91.21140241 155.4464149 -89.81840832 153.79066435 -88.0703125 152.26953125 C-87.4103125 152.26953125 -86.7503125 152.26953125 -86.0703125 152.26953125 C-86.4003125 150.94953125 -86.7303125 149.62953125 -87.0703125 148.26953125 C-86.4928125 148.20765625 -85.9153125 148.14578125 -85.3203125 148.08203125 C-82.20239156 146.95611535 -81.05651087 144.85158914 -79.0703125 142.26953125 C-78.4103125 142.26953125 -77.7503125 142.26953125 -77.0703125 142.26953125 C-77.0703125 141.60953125 -77.0703125 140.94953125 -77.0703125 140.26953125 C-76.3690625 139.71265625 -75.6678125 139.15578125 -74.9453125 138.58203125 C-71.0673087 135.46276732 -67.31837563 131.76565751 -65.0703125 127.26953125 C-64.4103125 127.26953125 -63.7503125 127.26953125 -63.0703125 127.26953125 C-62.5753125 125.78453125 -62.5753125 125.78453125 -62.0703125 124.26953125 C-60.4306404 122.90313783 -58.75921122 121.57458935 -57.0703125 120.26953125 C-54.61506844 117.93120357 -52.38192407 115.69655452 -50.3828125 112.95703125 C-49.733125 112.12171875 -49.733125 112.12171875 -49.0703125 111.26953125 C-48.4103125 111.26953125 -47.7503125 111.26953125 -47.0703125 111.26953125 C-47.0703125 110.27953125 -47.0703125 109.28953125 -47.0703125 108.26953125 C-45.71484375 106.83984375 -45.71484375 106.83984375 -43.8828125 105.39453125 C-39.04120686 101.44120406 -34.89403154 97.22620408 -31.0703125 92.26953125 C-30.4103125 92.59953125 -29.7503125 92.92953125 -29.0703125 93.26953125 C-30.543421 98.44479402 -33.78811954 101.30103772 -37.5703125 104.89453125 C-38.74956848 106.03030056 -39.92673613 107.1682431 -41.1015625 108.30859375 C-41.62298828 108.80568848 -42.14441406 109.3027832 -42.68164062 109.81494141 C-44.29934824 111.42530435 -44.29934824 111.42530435 -46.0703125 114.26953125 C-46.7303125 114.26953125 -47.3903125 114.26953125 -48.0703125 114.26953125 C-48.28558594 114.81351563 -48.50085938 115.3575 -48.72265625 115.91796875 C-50.53410891 119.07882238 -53.02527273 121.39716921 -55.6328125 123.89453125 C-59.29745266 127.23356027 -59.29745266 127.23356027 -62.0703125 131.26953125 C-62.7303125 131.26953125 -63.3903125 131.26953125 -64.0703125 131.26953125 C-64.29332031 131.82125 -64.51632812 132.37296875 -64.74609375 132.94140625 C-66.48585347 136.00009885 -68.72795732 138.07691245 -71.2578125 140.51953125 C-75.15843904 144.32881119 -78.85552593 148.22786012 -82.39453125 152.375 C-84.21008628 154.42755056 -86.11790786 156.34699131 -88.0703125 158.26953125 C-91.21609586 161.37329079 -94.14325266 164.58829423 -97.0234375 167.9375 C-99.65197938 170.93223188 -102.35957968 173.84928727 -105.0703125 176.76953125 C-108.8310383 180.8240997 -112.53445029 184.91115621 -116.1484375 189.09765625 C-119.33076103 192.69394056 -122.61466066 196.197633 -125.89648438 199.703125 C-127.99060014 201.95246131 -129.99843983 204.17046351 -131.8046875 206.66015625 C-132.43117188 207.45679688 -132.43117188 207.45679688 -133.0703125 208.26953125 C-133.7303125 208.26953125 -134.3903125 208.26953125 -135.0703125 208.26953125 C-135.18171203 200.95895138 -135.21346828 193.65098711 -135.19238281 186.33959961 C-135.19431785 183.85775009 -135.2138385 181.37584469 -135.25195312 178.89428711 C-135.5984425 154.96245831 -135.5984425 154.96245831 -129.26953125 147.421875 C-127.56936844 145.67184201 -125.83772416 143.95162075 -124.0703125 142.26953125 C-122.59933884 140.37843267 -121.15690043 138.46441436 -119.7578125 136.51953125 C-110.65307322 124.34234462 -101.34714153 112.31578885 -92.0703125 100.26953125 C-90.40335958 98.10308474 -88.73683837 95.93630628 -87.0703125 93.76953125 C-86.23698703 92.68619187 -85.4036537 91.60285853 -84.5703125 90.51953125 C-84.1578125 89.98328125 -83.7453125 89.44703125 -83.3203125 88.89453125 C-79.5703125 84.01953125 -79.5703125 84.01953125 -78.32080078 82.39526367 C-77.48571404 81.30958569 -76.65075352 80.2238106 -75.81591797 79.13793945 C-73.76041888 76.4646696 -71.70243135 73.79341498 -69.640625 71.125 C-65.15200589 65.3126522 -60.71297864 59.46728093 -56.3203125 53.58203125 C-50.21864043 45.41276855 -43.95480603 37.37397885 -37.68066406 29.33691406 C-35.38209003 26.38598548 -33.09862052 23.42362042 -30.8203125 20.45703125 C-30.09682617 19.53968704 -29.37333984 18.62234283 -28.62792969 17.67720032 C-26.90958889 15.45164408 -25.46401126 13.28052159 -23.98391724 10.86616516 C-17.67968938 0.8243929 -11.59113387 -0.54446326 0 0 Z " fill="#0D3578" transform="translate(471.0703125,459.73046875)"/>
<path d="M0 0 C2 2 2 2 2.04306984 3.90153694 C1.94535978 4.68137381 1.84764973 5.46121067 1.74697876 6.26467896 C1.58702675 7.60665344 1.58702675 7.60665344 1.42384338 8.97573853 C1.29509323 9.95972626 1.16634308 10.94371399 1.03369141 11.95751953 C0.90718704 12.99169006 0.78068268 14.0258606 0.65034485 15.09136963 C0.2278859 18.52323896 -0.21022927 21.95292154 -0.6484375 25.3828125 C-0.94372127 27.75638076 -1.23803113 30.13007036 -1.53140259 32.50387573 C-2.30751214 38.76213352 -3.0968913 45.0186493 -3.88897705 51.27490234 C-4.69436975 57.65493145 -5.48729611 64.0365079 -6.28125 70.41796875 C-7.8419187 82.9468636 -9.41617751 95.47401217 -11 108 C-11.99 107.34 -12.98 106.68 -14 106 C-13.42463568 96.83242413 -12.57618979 87.74675024 -11.40625 78.63671875 C-11.17887146 76.83881645 -11.17887146 76.83881645 -10.94689941 75.0045929 C-10.62942405 72.5029013 -10.31003157 70.00145228 -9.98876953 67.50024414 C-9.49552665 63.65260472 -9.01110333 59.80392012 -8.52734375 55.95507812 C-8.21666984 53.51555821 -7.90549075 51.07610256 -7.59375 48.63671875 C-7.44893188 47.48274094 -7.30411377 46.32876312 -7.15490723 45.13981628 C-7.01806519 44.08393814 -6.88122314 43.02806 -6.74023438 41.94018555 C-6.56155823 40.54125313 -6.56155823 40.54125313 -6.37927246 39.11405945 C-6 37 -6 37 -5 36 C-4.78398747 33.224839 -4.62253961 30.46711156 -4.5 27.6875 C-4.41928613 26.04811169 -4.33725003 24.40878796 -4.25390625 22.76953125 C-4.21281738 21.96080566 -4.17172852 21.15208008 -4.12939453 20.31884766 C-3.86257378 15.53721844 -3.4394401 10.76839258 -3 6 C-10.61865556 7.83412078 -18.08253359 9.99601053 -25.5 12.52734375 C-26.30131348 12.7996582 -27.10262695 13.07197266 -27.92822266 13.35253906 C-29.53919271 13.90228139 -31.14831116 14.45748474 -32.75537109 15.01855469 C-33.50383301 15.27411133 -34.25229492 15.52966797 -35.0234375 15.79296875 C-35.69294434 16.0252417 -36.36245117 16.25751465 -37.05224609 16.49682617 C-39 17 -39 17 -43 17 C-43.33 17.66 -43.66 18.32 -44 19 C-45.83837891 19.73022461 -45.83837891 19.73022461 -48.2265625 20.40234375 C-49.09410156 20.65306641 -49.96164062 20.90378906 -50.85546875 21.16210938 C-51.76941406 21.41798828 -52.68335938 21.67386719 -53.625 21.9375 C-60.37305746 23.84668268 -66.87487619 25.74993247 -73.0625 29.125 C-75 30 -75 30 -77.75 30.4375 C-80.90786744 30.98405398 -83.63900052 31.9501364 -86.61328125 33.1171875 C-89.46223192 34.17097285 -92.34332726 35.05542727 -95.25 35.9375 C-106.48974869 39.1248215 -106.48974869 39.1248215 -117.1875 43.6875 C-120.50567083 45.23597972 -123.30325697 45.39541171 -126.9140625 45.6953125 C-129.758581 46.11080397 -131.58441681 47.46816676 -134 49 C-136.26674387 49.76784224 -138.56017074 50.40012671 -140.86328125 51.05078125 C-144.77258131 52.23379484 -148.59623786 53.61450901 -152.4375 55 C-158.88645618 57.31513757 -165.34109157 59.36044155 -172 61 C-172 61.66 -172 62.32 -172 63 C-171.278125 63.2475 -170.55625 63.495 -169.8125 63.75 C-166.71987123 65.12450167 -164.60013105 66.84379376 -162 69 C-160.02521008 70.37580151 -158.01729512 71.68641248 -156 73 C-159 74 -159 74 -160.85351562 73.22729492 C-161.53091797 72.81584229 -162.20832031 72.40438965 -162.90625 71.98046875 C-164.02193359 71.31241211 -164.02193359 71.31241211 -165.16015625 70.63085938 C-165.93230469 70.15455078 -166.70445312 69.67824219 -167.5 69.1875 C-168.65822266 68.49043945 -168.65822266 68.49043945 -169.83984375 67.77929688 C-172.93667894 65.90885136 -175.98923921 64.00717386 -179 62 C-179 61.34 -179 60.68 -179 60 C-154.74276816 51.64316114 -130.43361794 43.44457184 -106.09375 35.33203125 C-105.39562195 35.09934335 -104.6974939 34.86665545 -103.97821045 34.62691641 C-95.35332029 31.75250046 -86.7275641 28.88068829 -78.10149193 26.00982177 C-70.68459203 23.54131441 -63.26829425 21.07100032 -55.85203457 18.60057032 C-43.18541994 14.38122579 -30.51839475 10.16311626 -17.85084534 5.94657898 C-11.90010506 3.96575908 -5.94975483 1.98377802 0 0 Z " fill="#41A337" transform="translate(729,274)"/>
<path d="M0 0 C0.66 0.33 1.32 0.66 2 1 C1.51322375 1.34975041 1.02644751 1.69950083 0.52492046 2.05984974 C-1.76631847 4.97498395 -1.38565732 7.3697064 -1.39872742 11.04240417 C-1.40537424 11.76367266 -1.41202107 12.48494115 -1.41886932 13.22806627 C-1.43756012 15.65112862 -1.43489003 18.07369983 -1.43237305 20.49682617 C-1.44138652 22.23124391 -1.45171271 23.96565525 -1.46325684 25.70005798 C-1.49090175 30.41462269 -1.50012149 35.12906679 -1.50611091 39.84370208 C-1.51547513 44.76851569 -1.54167687 49.6932385 -1.56611633 54.61799622 C-1.60983887 63.94644415 -1.63835046 73.27487452 -1.66143972 82.60339385 C-1.68846059 93.22241866 -1.73237398 103.84135238 -1.77772844 114.46031225 C-1.87065711 136.30682589 -1.94230016 158.15336679 -2 180 C2.54607104 177.86400609 7.09176979 175.72722239 11.63716125 173.58978271 C13.17549708 172.86651538 14.71392521 172.14344435 16.25245667 171.42059326 C41.0032288 160.2704273 41.0032288 160.2704273 65.0234375 147.71875 C67.49961799 146.2889345 69.7615709 145.21235248 72.4375 144.25 C84.08995595 139.73025951 95.09838204 133.48382414 106.0859375 127.56640625 C107.71363892 126.69146219 109.34713847 125.82643076 111 125 C110.74798584 126.85354614 110.74798584 126.85354614 110 129 C108.29058838 130.25997925 108.29058838 130.25997925 106.03222656 131.34326172 C105.18385223 131.75876785 104.33547791 132.17427399 103.46139526 132.60237122 C102.53054108 133.04038559 101.59968689 133.47839996 100.640625 133.9296875 C99.67730255 134.3966655 98.7139801 134.86364349 97.72146606 135.34477234 C94.57058974 136.86828529 91.41053371 138.37163814 88.25 139.875 C86.07831252 140.92049371 83.90725262 141.967292 81.73681641 143.01538086 C76.43289926 145.57333803 71.12199989 148.11639275 65.80895996 150.65533447 C62.01561201 152.47123227 58.22931317 154.30143959 54.4453125 156.13671875 C49.86789376 158.35588098 45.28766243 160.56900812 40.703125 162.7734375 C35.81375462 165.12471382 30.92914894 167.48560395 26.046875 169.8515625 C24.05076867 170.8181238 22.05459972 171.78455565 20.05841064 172.75094604 C18.79086655 173.36495086 17.52356442 173.97945549 16.25653076 174.59451294 C12.51173716 176.41209741 8.76096814 178.21611837 5 180 C4.26491211 180.34885254 3.52982422 180.69770508 2.77246094 181.05712891 C-0.48557794 182.53766327 -2.3186096 183 -6 183 C-5.505 182.01 -5.505 182.01 -5 181 C-4.87756962 178.34625148 -4.81431199 175.71701637 -4.79467773 173.06201172 C-4.77982834 171.83262375 -4.77982834 171.83262375 -4.76467896 170.57839966 C-4.73302467 167.86219192 -4.70829103 165.14596668 -4.68359375 162.4296875 C-4.66302761 160.5492405 -4.64203123 158.66879817 -4.62062073 156.7883606 C-4.5653649 151.83343269 -4.51597112 146.87846283 -4.46777344 141.92346191 C-4.41758402 136.86950943 -4.36188461 131.81561806 -4.30664062 126.76171875 C-4.19901612 116.84119801 -4.09758069 106.92062426 -4 97 C-4.66 96.67 -5.32 96.34 -6 96 C-5.34 96 -4.68 96 -4 96 C-4.14100857 93.72886197 -4.28796755 91.45809275 -4.4375 89.1875 C-4.51871094 87.92292969 -4.59992187 86.65835938 -4.68359375 85.35546875 C-4.87184547 82.00818107 -4.87184547 82.00818107 -6 79 C-5.34 79 -4.68 79 -4 79 C-4.0169693 78.13635834 -4.0339386 77.27271667 -4.05142212 76.38290405 C-4.20970332 68.23219254 -4.35787432 60.08137281 -4.49477577 51.93027306 C-4.56550755 47.74001041 -4.64010623 43.54989196 -4.72363281 39.35986328 C-4.80414106 35.31403266 -4.87437316 31.26814065 -4.93757248 27.22200394 C-4.96343704 25.68063442 -4.99296412 24.13932174 -5.02626419 22.59809494 C-5.07237897 20.4344126 -5.1053043 18.27089193 -5.13525391 16.10693359 C-5.15746002 14.87671478 -5.17966614 13.64649597 -5.20254517 12.3789978 C-4.9439314 8.0646251 -4.24832508 4.44037509 -1.375 1.125 C-0.92125 0.75375 -0.4675 0.3825 0 0 Z " fill="#0B2E67" transform="translate(574,526)"/>
<path d="M0 0 C2.42951062 2.42951062 2.24533253 3.72226944 2.28216553 7.03857422 C2.27968811 7.73732666 2.27721069 8.4360791 2.2746582 9.15600586 C2.27976913 9.8927504 2.28488007 10.62949493 2.29014587 11.38856506 C2.30407758 13.83073996 2.30308242 16.27263377 2.30078125 18.71484375 C2.30466631 20.40873826 2.30900059 22.10263179 2.31376648 23.79652405 C2.32123645 27.34997717 2.32093189 30.90333094 2.31567383 34.45678711 C2.30987911 39.01458981 2.3268063 43.57198615 2.3500185 48.12972164 C2.36473795 51.62897629 2.36562998 55.12813268 2.36250877 58.6274128 C2.36302292 60.30796679 2.36827815 61.98852615 2.37832069 63.66905022 C2.39063302 66.01783655 2.38392531 68.3658264 2.37231445 70.71459961 C2.37995819 71.41132782 2.38760193 72.10805603 2.39547729 72.82589722 C2.36510673 75.6000401 2.33818561 77.52036233 0.7116394 79.82723999 C-1.07242532 81.04962349 -2.8193482 82.08981357 -4.75854492 83.04956055 C-5.88198555 83.61111092 -5.88198555 83.61111092 -7.02812195 84.18400574 C-7.83739639 84.58090103 -8.64667084 84.97779633 -9.48046875 85.38671875 C-10.32611893 85.80742142 -11.1717691 86.22812408 -12.04304504 86.66157532 C-14.75509508 88.00921679 -17.47117191 89.34850578 -20.1875 90.6875 C-21.96577126 91.56910401 -23.74376894 92.4512601 -25.52148438 93.33398438 C-29.01555369 95.06804935 -32.51085462 96.79958866 -36.00732422 98.52880859 C-40.61905128 100.81040456 -45.22774924 103.09794746 -49.83203125 105.39453125 C-50.45208542 105.70283371 -51.07213959 106.01113617 -51.71098328 106.32878113 C-56.01513549 108.47845169 -60.26461975 110.71906703 -64.5 113 C-71.63355691 116.83544359 -78.85711003 120.46845685 -86.11621094 124.05957031 C-87.94183049 124.97096048 -89.75737728 125.89960859 -91.5703125 126.8359375 C-92.64023437 127.38507813 -93.71015625 127.93421875 -94.8125 128.5 C-95.74707031 128.9846875 -96.68164062 129.469375 -97.64453125 129.96875 C-100 131 -100 131 -103 131 C-104.94892542 108.82395556 -104.94892542 108.82395556 -98.39453125 100.8359375 C-94.88083737 97.19454372 -91.05741576 93.97943731 -87.11669922 90.8125 C-84.39403814 88.48112332 -82.17168097 85.87527475 -79.86669922 83.13989258 C-76.18298383 78.91706163 -72.11583562 75.05481367 -68.125 71.125 C-66.41699476 69.4424115 -64.71114749 67.75762867 -63.0078125 66.0703125 C-62.26160645 65.33570801 -61.51540039 64.60110352 -60.74658203 63.84423828 C-58.93306123 62.10805576 -58.93306123 62.10805576 -58 60 C-57.34 60 -56.68 60 -56 60 C-55.7525 59.38125 -55.505 58.7625 -55.25 58.125 C-53.76259631 55.59641373 -52.56321991 55.28160996 -50 54 C-49.74863281 53.44256104 -49.49726563 52.88512207 -49.23828125 52.31079102 C-47.46513263 49.00186916 -44.84838292 46.62335964 -42.1875 44.02734375 C-41.61797607 43.46302139 -41.04845215 42.89869904 -40.46166992 42.317276 C-38.64581011 40.51918856 -36.82339702 38.72794116 -35 36.9375 C-33.17748457 35.14263487 -31.3564599 33.34632006 -29.53833008 31.54701233 C-28.40811145 30.42901482 -27.27522989 29.31370144 -26.1394043 28.20140076 C-23.80129494 25.89300342 -21.8300135 23.74502026 -20 21 C-19.34 21 -18.68 21 -18 21 C-17.34 19.68 -16.68 18.36 -16 17 C-15.34 17 -14.68 17 -14 17 C-13.773125 16.44441406 -13.54625 15.88882813 -13.3125 15.31640625 C-11.62302816 12.33468957 -9.46497875 10.3129083 -7 7.9375 C-4.31789712 5.34506045 -2.07210825 3.10816238 0 0 Z M-3.44189453 6.30664062 C-3.99989746 6.91701172 -4.55790039 7.52738281 -5.1328125 8.15625 C-6.08414063 9.18480103 -6.08414063 9.18480103 -7.0546875 10.23413086 C-7.73789062 10.98186768 -8.42109375 11.72960449 -9.125 12.5 C-15.61432642 19.52090842 -22.25996103 26.33818946 -29.12158203 32.99609375 C-29.76208496 33.62515625 -30.40258789 34.25421875 -31.0625 34.90234375 C-31.63097656 35.45398193 -32.19945312 36.00562012 -32.78515625 36.57397461 C-34.21616388 37.94151766 -34.21616388 37.94151766 -34 40 C-34.57637207 40.2386377 -35.15274414 40.47727539 -35.74658203 40.72314453 C-38.46973332 42.26616525 -40.02016927 44.05235319 -42.0546875 46.4296875 C-47.16541005 52.2516854 -52.61014895 57.68917445 -58.125 63.125 C-65.52421088 70.36012182 -65.52421088 70.36012182 -72.49609375 78 C-77.43976545 83.78085897 -82.97663319 89.00395917 -88.41235352 94.31640625 C-89.82994803 95.70399001 -91.24125905 97.09798418 -92.65234375 98.4921875 C-93.48757568 99.31058105 -94.32280762 100.12897461 -95.18334961 100.97216797 C-97.22241956 102.7945157 -97.22241956 102.7945157 -97 105 C-97.66 105 -98.32 105 -99 105 C-101.16926659 108.25389988 -101.24080049 109.13395957 -101.1953125 112.88671875 C-101.18886719 113.82451172 -101.18242187 114.76230469 -101.17578125 115.72851562 C-101.15902344 116.70498047 -101.14226562 117.68144531 -101.125 118.6875 C-101.11597656 119.67556641 -101.10695313 120.66363281 -101.09765625 121.68164062 C-101.0740843 124.12133765 -101.04118022 126.56054697 -101 129 C-100.05125 128.4225 -99.1025 127.845 -98.125 127.25 C-95.33327693 125.65043958 -92.56798954 124.39424906 -89.55883789 123.26049805 C-83.16369709 120.73818347 -77.07104154 117.66970305 -70.93359375 114.58203125 C-69.68838445 113.95882801 -68.4430249 113.33592491 -67.19752502 112.71330261 C-64.5968236 111.41217463 -61.99747387 110.10839911 -59.39916992 108.80249023 C-56.12251542 107.15573543 -52.84329047 105.5141828 -49.56314659 103.87439156 C-37.1293691 97.65721555 -24.7105184 91.42167747 -12.46508789 84.83862305 C-9.20328246 83.10786446 -5.91397234 81.45737342 -2.59593201 79.83821106 C-1.00377434 79.10284802 -1.00377434 79.10284802 0 78 C0.09439978 75.73008113 0.11742226 73.45718033 0.11352539 71.18530273 C0.11367142 70.47314606 0.11381744 69.76098938 0.1139679 69.0272522 C0.1132687 66.66266888 0.10547606 64.29816339 0.09765625 61.93359375 C0.09579209 60.29834537 0.09436818 58.66309643 0.09336853 57.02784729 C0.08954318 52.71565215 0.07971275 48.40349048 0.06866455 44.09130859 C0.0584508 39.69434054 0.05387099 35.29736711 0.04882812 30.90039062 C0.03809049 22.26691169 0.02101387 13.63346 0 5 C-2.07730778 4.77616737 -2.07730778 4.77616737 -3.44189453 6.30664062 Z " fill="#0D295D" transform="translate(439,574)"/>
<path d="M0 0 C1.82867363 0.01332367 1.82867363 0.01332367 3.69429016 0.0269165 C4.70444183 0.02604034 4.70444183 0.02604034 5.73500061 0.02514648 C7.95934226 0.02793168 10.18234109 0.05904093 12.40644836 0.09039307 C13.94915027 0.09785399 15.49186165 0.10354763 17.03457642 0.10754395 C21.0938181 0.12281223 25.15248672 0.16210362 29.21150208 0.20635986 C33.35387927 0.24728724 37.49634911 0.2655495 41.63887024 0.28570557 C49.76608626 0.32859735 57.89283664 0.39686237 66.01972961 0.48101807 C66.01972961 0.81101807 66.01972961 1.14101807 66.01972961 1.48101807 C43.57972961 1.48101807 21.13972961 1.48101807 -1.98027039 1.48101807 C-2.64027039 2.80101807 -3.30027039 4.12101807 -3.98027039 5.48101807 C-5.58124042 7.58961274 -7.20107367 9.66544599 -8.85527039 11.73101807 C-11.69502842 15.32429407 -14.31448766 18.69760542 -16.16777039 22.91851807 C-18.10773914 26.73156009 -19.90587117 28.33331783 -23.17558289 30.92242432 C-27.30947352 34.49260259 -30.30390507 38.82084865 -32.35527039 43.85601807 C-34.70812493 49.10469359 -38.2974416 53.09972175 -41.98027039 57.48101807 C-43.60886211 59.43636546 -45.23389788 61.39468035 -46.85527039 63.35601807 C-47.9651532 64.68246338 -47.9651532 64.68246338 -49.09745789 66.03570557 C-50.7274981 68.15272875 -51.85722624 70.07749368 -52.98027039 72.48101807 C-54.48027039 74.23101807 -54.48027039 74.23101807 -55.98027039 75.48101807 C-56.64027039 75.48101807 -57.30027039 75.48101807 -57.98027039 75.48101807 C-58.02152039 76.16164307 -58.06277039 76.84226807 -58.10527039 77.54351807 C-59.36467583 81.77152205 -62.04178326 84.27539575 -64.98027039 87.48101807 C-65.94538108 88.62114883 -66.90433989 89.76653369 -67.85527039 90.91851807 C-68.90714539 92.18695557 -68.90714539 92.18695557 -69.98027039 93.48101807 C-69.98027039 89.8834133 -69.08514743 89.25945576 -66.98027039 86.48101807 C-66.83645935 85.85380859 -66.69264832 85.22659912 -66.54447937 84.5803833 C-65.89367249 82.15879593 -64.93055728 80.79863312 -63.39042664 78.82867432 C-62.85844666 78.14128174 -62.32646667 77.45388916 -61.77836609 76.7456665 C-61.20561951 76.01895752 -60.63287292 75.29224854 -60.04277039 74.54351807 C-59.45519958 73.78716064 -58.86762878 73.03080322 -58.26225281 72.25152588 C-57.06725869 70.71359783 -55.86976008 69.17761242 -54.66972351 67.64361572 C-52.35950363 64.68640074 -50.07601725 61.70906586 -47.79277039 58.73101807 C-45.43162189 55.6616661 -43.06772968 52.59443012 -40.70292664 49.52789307 C-36.15913779 43.63079606 -31.63713762 37.71793204 -27.13188171 31.7913208 C-20.8586354 23.54013613 -14.55085547 15.3225134 -8.11698914 7.19586182 C-6.01083039 4.6591527 -6.01083039 4.6591527 -4.7638855 2.33972168 C-2.98027039 0.48101807 -2.98027039 0.48101807 0 0 Z " fill="#066366" transform="translate(457.9802703857422,460.51898193359375)"/>
<path d="M0 0 C0.99 0.495 0.99 0.495 2 1 C0.5268915 6.17526277 -2.71780704 9.03150647 -6.5 12.625 C-7.67925598 13.76076931 -8.85642363 14.89871185 -10.03125 16.0390625 C-10.55267578 16.53615723 -11.07410156 17.03325195 -11.61132812 17.54541016 C-13.22903574 19.1557731 -13.22903574 19.1557731 -15 22 C-15.66 22 -16.32 22 -17 22 C-17.21527344 22.54398438 -17.43054688 23.08796875 -17.65234375 23.6484375 C-19.46379641 26.80929113 -21.95496023 29.12763796 -24.5625 31.625 C-28.22714016 34.96402902 -28.22714016 34.96402902 -31 39 C-31.66 39 -32.32 39 -33 39 C-33.33451172 39.82757812 -33.33451172 39.82757812 -33.67578125 40.671875 C-35.41554097 43.7305676 -37.65764482 45.8073812 -40.1875 48.25 C-44.15726619 52.12040839 -47.92648698 56.07238326 -51.46484375 60.34375 C-53.16283553 62.17568007 -54.97990202 63.53542897 -57 65 C-58.79011495 66.51293586 -60.55278241 68.0539944 -62.31640625 69.59765625 C-64 71 -64 71 -67 73 C-64.88963405 68.0118623 -61.10074429 63.51492368 -57 60 C-56.34 60 -55.68 60 -55 60 C-55.33 58.68 -55.66 57.36 -56 56 C-55.13375 55.9071875 -55.13375 55.9071875 -54.25 55.8125 C-51.13207906 54.6865841 -49.98619837 52.58205789 -48 50 C-47.34 50 -46.68 50 -46 50 C-46 49.34 -46 48.68 -46 48 C-45.29875 47.443125 -44.5975 46.88625 -43.875 46.3125 C-39.9969962 43.19323607 -36.24806313 39.49612626 -34 35 C-33.34 35 -32.68 35 -32 35 C-31.67 34.01 -31.34 33.02 -31 32 C-29.3603279 30.63360658 -27.68889872 29.3050581 -26 28 C-23.54475594 25.66167232 -21.31161157 23.42702327 -19.3125 20.6875 C-18.879375 20.130625 -18.44625 19.57375 -18 19 C-17.34 19 -16.68 19 -16 19 C-16 18.01 -16 17.02 -16 16 C-14.64453125 14.5703125 -14.64453125 14.5703125 -12.8125 13.125 C-7.97089436 9.17167281 -3.82371904 4.95667283 0 0 Z " fill="#083F79" transform="translate(440,552)"/>
<path d="M0 0 C0.99 0.495 0.99 0.495 2 1 C0.33333333 2.66666667 -1.33333333 4.33333333 -3 6 C-3.58031479 6.70938721 -4.16062958 7.41877441 -4.75852966 8.1496582 C-7.81639536 10.67393729 -9.68340976 10.44614868 -13.61352539 10.35546875 C-14.26943665 10.34653091 -14.9253479 10.33759308 -15.60113525 10.3283844 C-17.02264166 10.30761801 -18.4440431 10.27827933 -19.86522102 10.24133301 C-22.12468893 10.18684813 -24.38237371 10.16425406 -26.6424408 10.15136719 C-33.06605907 10.11226977 -39.48796557 10.04234922 -45.90991211 9.88720703 C-49.84448591 9.79444673 -53.77593364 9.76144821 -57.71154594 9.76504517 C-59.20158387 9.75513063 -60.69165969 9.72339769 -62.18071175 9.66830444 C-71.40948048 9.32714466 -71.40948048 9.32714466 -79.29244995 13.60644531 C-82.14055369 16.53625797 -84.54760705 19.73690097 -87 23 C-88.3673829 24.44414651 -89.75897938 25.86630062 -91.1875 27.25 C-92.115625 28.1575 -93.04375 29.065 -94 30 C-94.33 29.34 -94.66 28.68 -95 28 C-92.82966027 24.35382926 -90.82508212 21.71541498 -87.5 19.0625 C-83.87249418 16.12631756 -82.17006052 13.0990032 -80 9 C-77.12905457 7.56452728 -74.68254899 7.89105502 -71.47412109 7.90576172 C-70.08474753 7.9085489 -68.69537374 7.91121871 -67.30599976 7.91378784 C-66.56790447 7.91683804 -65.82980919 7.91988823 -65.06934738 7.92303085 C-61.15685987 7.93437452 -57.24448851 7.91386586 -53.33203125 7.8984375 C-48.35476531 7.88017474 -43.37811727 7.87137347 -38.40087891 7.90039062 C-34.3780663 7.92300637 -30.35659809 7.91139833 -26.33388138 7.87738419 C-24.8053997 7.87063854 -23.276809 7.87623021 -21.74842453 7.89474106 C-11.64910243 8.13980577 -11.64910243 8.13980577 -2.99853516 3.44580078 C-1.24411633 1.61495772 -1.24411633 1.61495772 0 0 Z " fill="#10724A" transform="translate(536,525)"/>
<path d="M0 0 C0 4.28689681 -2.55053942 6.07654035 -5.375 9 C-6.48086833 10.17019543 -7.58633073 11.3407746 -8.69140625 12.51171875 C-9.24844238 13.09743652 -9.80547852 13.6831543 -10.37939453 14.28662109 C-12.72409129 16.76554273 -15.01915889 19.28593776 -17.3125 21.8125 C-18.12589844 22.70839844 -18.93929688 23.60429688 -19.77734375 24.52734375 C-21.6642039 26.62643422 -23.52689031 28.74188062 -25.375 30.875 C-29.08811377 35.1566288 -32.95284594 39.29623798 -36.82568359 43.43310547 C-38.91998261 45.68258816 -40.9279907 47.90074394 -42.734375 50.390625 C-43.15203125 50.92171875 -43.5696875 51.4528125 -44 52 C-44.66 52 -45.32 52 -46 52 C-45.67 35.17 -45.34 18.34 -45 1 C-44.67 1 -44.34 1 -44 1 C-43.67 16.18 -43.34 31.36 -43 47 C-39.82850141 42.68599434 -39.82850141 42.68599434 -40 40 C-38.576875 39.38125 -38.576875 39.38125 -37.125 38.75 C-33.71460694 36.84017989 -33.54198527 36.33092912 -32 33 C-28.24056617 27.5030981 -24.07353463 22.99680864 -18.96875 18.74609375 C-16.94649324 16.9525446 -15.24294692 15.0638076 -13.5 13 C-10.49988912 9.4550414 -7.24350166 6.43950042 -3.69921875 3.4453125 C-1.90381734 1.95747294 -1.90381734 1.95747294 0 0 Z " fill="#0C2D6B" transform="translate(382,616)"/>
<path d="M0 0 C-2.26884954 2.26884954 -3.82774641 2.79752232 -6.83984375 3.83984375 C-7.82146484 4.18080078 -8.80308594 4.52175781 -9.81445312 4.87304688 C-10.84505859 5.22431641 -11.87566406 5.57558594 -12.9375 5.9375 C-14.43120117 6.45860352 -14.43120117 6.45860352 -15.95507812 6.99023438 C-22.57118061 9.2700205 -29.22613001 11.24541833 -36 13 C-36 13.66 -36 14.32 -36 15 C-35.278125 15.2475 -34.55625 15.495 -33.8125 15.75 C-30.71987123 17.12450167 -28.60013105 18.84379376 -26 21 C-24.02521008 22.37580151 -22.01729512 23.68641248 -20 25 C-23 26 -23 26 -24.85351562 25.22729492 C-25.53091797 24.81584229 -26.20832031 24.40438965 -26.90625 23.98046875 C-27.65003906 23.53509766 -28.39382813 23.08972656 -29.16015625 22.63085938 C-29.93230469 22.15455078 -30.70445312 21.67824219 -31.5 21.1875 C-32.65822266 20.49043945 -32.65822266 20.49043945 -33.83984375 19.77929688 C-36.93667894 17.90885136 -39.98923921 16.00717386 -43 14 C-43 13.34 -43 12.68 -43 12 C-38.16747266 10.27497125 -33.32947417 8.56663874 -28.48583984 6.87304688 C-26.8413574 6.29549146 -25.19841664 5.71352567 -23.55712891 5.12695312 C-21.18791001 4.28111177 -18.81346839 3.45166297 -16.4375 2.625 C-15.35106201 2.23127197 -15.35106201 2.23127197 -14.24267578 1.82958984 C-9.30523357 0.13529149 -5.21943268 -0.24658737 0 0 Z " fill="#3EA036" transform="translate(593,322)"/>
<path d="M0 0 C0.66 0.66 1.32 1.32 2 2 C1.34 2 0.68 2 0 2 C-0.0501123 2.56807373 -0.10022461 3.13614746 -0.15185547 3.72143555 C-1.11654135 14.54188615 -2.13247419 25.29152752 -4 36 C-4.33 36 -4.66 36 -5 36 C-4.47703281 25.98573465 -3.92041114 15.98744003 -3 6 C-10.62282252 7.83512394 -18.09596395 9.97599072 -25.5 12.5625 C-26.30131348 12.83932617 -27.10262695 13.11615234 -27.92822266 13.40136719 C-29.54048136 13.96055809 -31.14966098 14.52871905 -32.75537109 15.10644531 C-33.50383301 15.36522461 -34.25229492 15.62400391 -35.0234375 15.890625 C-36.02769775 16.24688965 -36.02769775 16.24688965 -37.05224609 16.61035156 C-39.33737825 17.06749257 -40.80448122 16.71368132 -43 16 C-41.27473958 15.28385417 -39.54947917 14.56770833 -37.82421875 13.8515625 C-35.73466068 12.93193308 -35.73466068 12.93193308 -33 11 C-30.50360118 10.08376756 -28.01485078 9.22216577 -25.48828125 8.3984375 C-24.39594429 8.0364476 -24.39594429 8.0364476 -23.28153992 7.66714478 C-20.95990276 6.89885425 -18.63625578 6.13685564 -16.3125 5.375 C-14.7361915 4.85458032 -13.16001792 4.33375177 -11.58398438 3.8125 C-7.72420468 2.53692057 -3.8626108 1.26697936 0 0 Z " fill="#52BA41" transform="translate(729,274)"/>
<path d="M0 0 C1.82867363 0.01332367 1.82867363 0.01332367 3.69429016 0.0269165 C4.70444183 0.02604034 4.70444183 0.02604034 5.73500061 0.02514648 C7.95934226 0.02793168 10.18234109 0.05904093 12.40644836 0.09039307 C13.94915027 0.09785399 15.49186165 0.10354763 17.03457642 0.10754395 C21.0938181 0.12281223 25.15248672 0.16210362 29.21150208 0.20635986 C33.35387927 0.24728724 37.49634911 0.2655495 41.63887024 0.28570557 C49.76608626 0.32859735 57.89283664 0.39686237 66.01972961 0.48101807 C66.01972961 0.81101807 66.01972961 1.14101807 66.01972961 1.48101807 C43.57972961 1.48101807 21.13972961 1.48101807 -1.98027039 1.48101807 C-2.64027039 2.80101807 -3.30027039 4.12101807 -3.98027039 5.48101807 C-5.58124042 7.58961274 -7.20107367 9.66544599 -8.85527039 11.73101807 C-11.69502842 15.32429407 -14.31448766 18.69760542 -16.16777039 22.91851807 C-18.10508427 26.72634191 -19.88703817 28.33484969 -23.17167664 30.89898682 C-25.82230758 33.21757328 -27.71653081 35.96468032 -29.71855164 38.84429932 C-30.98027039 40.48101807 -30.98027039 40.48101807 -32.98027039 41.48101807 C-31.37195031 36.17251062 -27.94528697 32.30737985 -24.54277039 28.04351807 C-23.9203949 27.25380615 -23.29801941 26.46409424 -22.65678406 25.65045166 C-21.38362601 24.03586539 -20.10799122 22.42322902 -18.82987976 20.81256104 C-16.61483668 18.02036708 -14.41269497 15.21822523 -12.21244812 12.41436768 C-11.2913082 11.24104294 -10.36901296 10.06862394 -9.44535828 8.89727783 C-6.93331452 5.73215222 -6.93331452 5.73215222 -4.75949097 2.33312988 C-2.98027039 0.48101807 -2.98027039 0.48101807 0 0 Z " fill="#0B6848" transform="translate(457.9802703857422,460.51898193359375)"/>
<path d="M0 0 C0.99 0.495 0.99 0.495 2 1 C-2.47381248 5.58089842 -7.02789042 9.98443483 -11.87890625 14.1640625 C-17.89395232 19.37045597 -23.74592303 24.76633925 -29.625 30.125 C-32.70309566 32.92757381 -35.7930187 35.70967875 -38.9375 38.4375 C-42.34688768 41.39883673 -45.67788107 44.44159036 -49 47.5 C-55.87013455 53.82206523 -62.90156368 59.93675231 -70 66 C-70.66 65.67 -71.32 65.34 -72 65 C-63.58877378 56.96622027 -55.15651451 49.01165339 -46.25488281 41.52172852 C-40.88967908 36.97667842 -35.77443298 32.18201044 -30.67944336 27.33764648 C-26.83068666 23.68373837 -22.90934636 20.14132737 -18.90136719 16.6628418 C-15.64477755 13.8147894 -12.48285112 10.86525143 -9.31445312 7.91992188 C-6.30732768 5.14258994 -3.22662585 2.51877375 0 0 Z " fill="#0C4475" transform="translate(647,460)"/>
<path d="M0 0 C0.495 0.99 0.495 0.99 1 2 C-6.25754107 11.9292921 -13.58012526 21.8012248 -21.0625 31.5625 C-26.08467028 38.11551806 -31.00973931 44.72200775 -35.8125 51.4375 C-39.83775954 57.05969023 -43.93091663 62.61274598 -48.1875 68.0625 C-48.64552002 68.65281006 -49.10354004 69.24312012 -49.57543945 69.85131836 C-52.7534597 73.87672985 -52.7534597 73.87672985 -55 75 C-53.5065617 70.41668936 -50.88371682 67.05502883 -47.875 63.375 C-46.86435313 62.11450829 -45.85524712 60.85277965 -44.84765625 59.58984375 C-44.35539551 58.97351074 -43.86313477 58.35717773 -43.35595703 57.72216797 C-41.61034407 55.5051075 -39.95391975 53.23254998 -38.3125 50.9375 C-34.43902853 45.54315629 -30.41107716 40.27348411 -26.375 35 C-20.33504555 27.10563008 -14.38223546 19.15402519 -8.51708984 11.12890625 C-5.75369827 7.35257529 -2.96280769 3.62440552 0 0 Z " fill="#0B2E61" transform="translate(410,496)"/>
<path d="M0 0 C0.66 0.66 1.32 1.32 2 2 C1.34 2 0.68 2 0 2 C0 2.99 0 3.98 0 5 C-1.28515625 6.32421875 -1.28515625 6.32421875 -3.0625 7.6875 C-5.71427826 9.82212648 -7.96720128 12.00625988 -10.15234375 14.61328125 C-15.10990132 20.3668466 -20.56331759 25.60971068 -25.97265625 30.93359375 C-30.25409441 35.17379816 -34.35161463 39.47718013 -38.27587891 44.04882812 C-41.34140301 47.51805337 -44.64422523 50.74873953 -47.9375 54 C-48.96327148 55.01900391 -48.96327148 55.01900391 -50.00976562 56.05859375 C-51.67087159 57.70808359 -53.33428513 59.3551668 -55 61 C-55.99 60.67 -56.98 60.34 -58 60 C-57.34 60 -56.68 60 -56 60 C-55.62875 59.071875 -55.62875 59.071875 -55.25 58.125 C-53.76259631 55.59641373 -52.56321991 55.28160996 -50 54 C-49.74863281 53.44256104 -49.49726563 52.88512207 -49.23828125 52.31079102 C-47.46513263 49.00186916 -44.84838292 46.62335964 -42.1875 44.02734375 C-41.61797607 43.46302139 -41.04845215 42.89869904 -40.46166992 42.317276 C-38.64581011 40.51918856 -36.82339702 38.72794116 -35 36.9375 C-33.17748457 35.14263487 -31.3564599 33.34632006 -29.53833008 31.54701233 C-28.40811145 30.42901482 -27.27522989 29.31370144 -26.1394043 28.20140076 C-23.80129494 25.89300342 -21.8300135 23.74502026 -20 21 C-19.34 21 -18.68 21 -18 21 C-17.34 19.68 -16.68 18.36 -16 17 C-15.34 17 -14.68 17 -14 17 C-13.773125 16.44441406 -13.54625 15.88882813 -13.3125 15.31640625 C-11.62302816 12.33468957 -9.46497875 10.3129083 -7 7.9375 C-4.31789712 5.34506045 -2.07210825 3.10816238 0 0 Z " fill="#0B3069" transform="translate(439,574)"/>
<path d="M0 0 C2.06654758 3.76565229 2.18124684 6.369865 2.0625 10.6875 C2.00116291 14.66214346 1.95127688 18.49872031 2.5 22.4375 C3.37329808 28.90728575 3.07723677 35.4863661 3 42 C3.59167969 41.11957031 4.18335938 40.23914063 4.79296875 39.33203125 C5.59086094 38.15866039 6.38905413 36.98549417 7.1875 35.8125 C7.57486328 35.23435547 7.96222656 34.65621094 8.36132812 34.06054688 C10.93841007 30.29076584 13.67676054 27.13435196 17 24 C15.34194215 29.22444643 12.11696767 33.30318142 8.9375 37.6875 C7.84133359 39.21143867 6.74622902 40.73614185 5.65234375 42.26171875 C5.16757568 42.93162842 4.68280762 43.60153809 4.18334961 44.29174805 C2.94267284 45.99657027 2.94267284 45.99657027 2 48 C1.01 47.67 0.02 47.34 -1 47 C-1.02501716 42.23519254 -1.04300757 37.47042466 -1.05493164 32.70556641 C-1.05991102 31.08999972 -1.06669694 29.47443742 -1.07543945 27.85888672 C-1.12466635 18.51735827 -1.01553142 9.30121449 0 0 Z " fill="#102D67" transform="translate(337,548)"/>
<path d="M0 0 C2.61632974 3.2532974 4.49233679 6.673715 6.3984375 10.3828125 C6.71527496 10.99712128 7.03211243 11.61143005 7.35855103 12.24435425 C8.36749909 14.20280929 9.37125211 16.16387563 10.375 18.125 C11.04134093 19.41943856 11.70800477 20.71371096 12.375 22.0078125 C15.96460319 28.9812709 19.5146911 35.97373268 23 43 C24.51515517 39.96968967 24.64824641 36.7013029 25.0625 33.375 C25.15337891 32.66859375 25.24425781 31.9621875 25.33789062 31.234375 C25.56183119 29.4899959 25.78133818 27.74504866 26 26 C26.33 26 26.66 26 27 26 C27.12152487 33.73708326 26.84800767 41.307359 26 49 C25.01 49 24.02 49 23 49 C22.72961914 48.4237085 22.45923828 47.84741699 22.18066406 47.25366211 C16.30754292 34.77020281 10.25728656 22.42316665 3.70996094 10.27709961 C3.22430664 9.36581299 2.73865234 8.45452637 2.23828125 7.515625 C1.80555908 6.71415039 1.37283691 5.91267578 0.92700195 5.08691406 C0 3 0 3 0 0 Z " fill="#27833E" transform="translate(685,393)"/>
<path d="M0 0 C0.33 0 0.66 0 1 0 C1.06058594 0.97839844 1.12117188 1.95679688 1.18359375 2.96484375 C1.26738281 4.27582031 1.35117187 5.58679688 1.4375 6.9375 C1.48116699 7.62247559 1.52483398 8.30745117 1.56982422 9.01318359 C1.81671463 12.73586928 2.1414271 16.42598132 2.625 20.125 C2.95967526 23.58331106 2.6977189 25.68583524 2 29 C2.32205743 31.33491639 2.65458149 33.66842508 3 36 C2.67 36.99 2.34 37.98 2 39 C1.77674186 41.05893621 1.59294241 43.12233653 1.4375 45.1875 C1.35371094 46.27417969 1.26992188 47.36085938 1.18359375 48.48046875 C1.12300781 49.31191406 1.06242187 50.14335937 1 51 C0.67 51 0.34 51 0 51 C-0.79841697 44.68877943 -1.14800248 38.54522491 -1.1328125 32.1875 C-1.13376923 31.29256836 -1.13472595 30.39763672 -1.13571167 29.47558594 C-1.13638699 27.60335214 -1.13457835 25.73111591 -1.13037109 23.85888672 C-1.1249626 20.98009093 -1.1303638 18.10144758 -1.13671875 15.22265625 C-1.13605884 13.39843715 -1.1347795 11.57421815 -1.1328125 9.75 C-1.13483673 8.88656982 -1.13686096 8.02313965 -1.13894653 7.13354492 C-1.11498437 1.11498437 -1.11498437 1.11498437 0 0 Z " fill="#0E2D6C" transform="translate(337,454)"/>
<path d="M0 0 C0 7.58703361 -7.59385144 15.04387463 -12.1875 20.6875 C-14.03679813 22.93619369 -14.03679813 22.93619369 -15.375 25.375 C-17.56004426 28.90468689 -20.24478353 31.90595432 -23 35 C-23.66015625 33.23413086 -23.66015625 33.23413086 -24 31 C-22.99609375 29.14282227 -22.99609375 29.14282227 -21.4375 27.25390625 C-20.87933594 26.55797363 -20.32117188 25.86204102 -19.74609375 25.14501953 C-19.16988281 24.43716309 -18.59367187 23.72930664 -18 23 C-16.99287283 21.66027616 -15.99268502 20.31530351 -15 18.96484375 C-14 17.62239583 -13 16.27994792 -12 14.9375 C-11.505 14.26912109 -11.01 13.60074219 -10.5 12.91210938 C-7.16724521 8.4467387 -3.66671823 4.19599155 0 0 Z " fill="#073F72" transform="translate(391,545)"/>
<path d="M0 0 C0.66 0.33 1.32 0.66 2 1 C0.5268915 6.17526277 -2.71780704 9.03150647 -6.5 12.625 C-7.67925598 13.76076931 -8.85642363 14.89871185 -10.03125 16.0390625 C-10.55267578 16.53615723 -11.07410156 17.03325195 -11.61132812 17.54541016 C-13.22903574 19.1557731 -13.22903574 19.1557731 -15 22 C-15.66 22 -16.32 22 -17 22 C-17.268125 22.61875 -17.53625 23.2375 -17.8125 23.875 C-19 26 -19 26 -22 28 C-22.99 28 -23.98 28 -25 28 C-25 27.34 -25 26.68 -25 26 C-23.01739574 24.31267723 -21.0167658 22.64633943 -19 21 C-18.67 20.34 -18.34 19.68 -18 19 C-17.34 19 -16.68 19 -16 19 C-16 18.01 -16 17.02 -16 16 C-14.64453125 14.5703125 -14.64453125 14.5703125 -12.8125 13.125 C-7.97089436 9.17167281 -3.82371904 4.95667283 0 0 Z " fill="#056277" transform="translate(440,552)"/>
<path d="M0 0 C-2.90600261 1.25664978 -4.79604584 2 -8 2 C-8.33 2.99 -8.66 3.98 -9 5 C-10.83837891 5.84375 -10.83837891 5.84375 -13.2265625 6.5 C-14.09410156 6.7475 -14.96164062 6.995 -15.85546875 7.25 C-16.76941406 7.4975 -17.68335938 7.745 -18.625 8 C-28.75557189 10.77072612 -28.75557189 10.77072612 -38.1875 15.3125 C-39.0846875 15.6528125 -39.0846875 15.6528125 -40 16 C-42.11328125 15.04296875 -42.11328125 15.04296875 -44 14 C-42.71802734 13.60167969 -42.71802734 13.60167969 -41.41015625 13.1953125 C-40.30542969 12.84210938 -39.20070313 12.48890625 -38.0625 12.125 C-36.96035156 11.77695312 -35.85820313 11.42890625 -34.72265625 11.0703125 C-31.87121196 10.29975705 -31.87121196 10.29975705 -31 8 C-27.28246941 6.42820639 -23.44064764 5.21318689 -19.60864258 3.94897461 C-17.70117591 3.31703083 -15.80088654 2.66623546 -13.90039062 2.01367188 C-12.09924805 1.41329102 -12.09924805 1.41329102 -10.26171875 0.80078125 C-9.15787842 0.43122314 -8.05403809 0.06166504 -6.91674805 -0.3190918 C-4.06370913 -0.98512725 -2.69480867 -1.02614584 0 0 Z " fill="#44A738" transform="translate(694,288)"/>
<path d="M0 0 C0.66 0 1.32 0 2 0 C2 3.63 2 7.26 2 11 C1.34 11.33 0.68 11.66 0 12 C0 9.69 0 7.38 0 5 C-4.88599473 9.10074558 -9.50739613 13.34876699 -14 17.875 C-14.61085449 18.48633789 -15.22170898 19.09767578 -15.85107422 19.72753906 C-19.61335273 23.51895138 -23.21974558 27.38130531 -26.5703125 31.546875 C-28.22074026 33.22435895 -29.85617286 34.06150056 -32 35 C-30.42035813 31.14972794 -27.96855605 28.75374465 -25.01953125 25.859375 C-24.52845383 25.37349915 -24.0373764 24.88762329 -23.53141785 24.38702393 C-21.96314352 22.83649697 -20.38836518 21.29280844 -18.8125 19.75 C-16.75305407 17.72743871 -14.69723297 15.70128019 -12.64453125 13.671875 C-12.15034698 13.18473022 -11.65616272 12.69758545 -11.14700317 12.19567871 C-7.6633687 8.73465051 -4.41685703 5.13887658 -1.3112793 1.33691406 C-0.87855713 0.89573242 -0.44583496 0.45455078 0 0 Z " fill="#04509F" transform="translate(437,579)"/>
<path d="M0 0 C0 3.75576133 -1.00674357 4.54275863 -3.375 7.375 C-5.33060861 9.71690167 -6.84092963 11.57873312 -7.921875 14.44140625 C-9.33431385 17.79338975 -11.39328478 19.91509163 -13.875 22.5625 C-14.73867188 23.49191406 -15.60234375 24.42132813 -16.4921875 25.37890625 C-18.63330327 27.61673909 -20.79733418 29.82294657 -23 32 C-23.28936682 28.98006267 -23.32168751 27.46456235 -21.56640625 24.9296875 C-20.90511719 24.25164062 -20.24382813 23.57359375 -19.5625 22.875 C-16.35689831 19.47082122 -13.31677092 16.01100888 -10.375 12.375 C-6.97978132 8.19129033 -3.52868582 4.07156056 0 0 Z " fill="#359D39" transform="translate(599,368)"/>
<path d="M0 0 C0.33 0 0.66 0 1 0 C1 9.24 1 18.48 1 28 C1.66 28 2.32 28 3 28 C2.39174965 32.34464536 1.73832608 36.67551867 1 41 C0.34 40.67 -0.32 40.34 -1 40 C-1.02470935 34.78556667 -1.04286444 29.57116739 -1.05493164 24.35668945 C-1.059962 22.58259487 -1.06678699 20.80850444 -1.07543945 19.03442383 C-1.08756174 16.48517839 -1.09324126 13.93598774 -1.09765625 11.38671875 C-1.10281754 10.59287277 -1.10797882 9.79902679 -1.11329651 8.98112488 C-1.11362877 5.72343714 -1.03772826 3.11318479 0 0 Z " fill="#113272" transform="translate(337,412)"/>
<path d="M0 0 C0.33 0 0.66 0 1 0 C1.16136262 8.91080233 1.16136262 8.91080233 0.5 13.375 C-0.09701776 17.70337874 0.0202195 21.87003951 0.16015625 26.23046875 C-0.00874229 29.15117763 -0.67826042 30.44851004 -2 33 C-2.43798538 35.23859193 -2.80873928 37.49099487 -3.125 39.75 C-3.29257812 40.92046875 -3.46015625 42.0909375 -3.6328125 43.296875 C-3.75398437 44.18890625 -3.87515625 45.0809375 -4 46 C-6.45668485 42.81183033 -8.38838956 39.70670402 -10 36 C-9.67 35.34 -9.34 34.68 -9 34 C-7.35 35.65 -5.7 37.3 -4 39 C-4.04125 37.83597656 -4.0825 36.67195313 -4.125 35.47265625 C-4.125 28.39697739 -2.98464003 21.42827897 -2 14.4375 C-1.80673925 13.03327904 -1.61402658 11.62898254 -1.421875 10.22460938 C-0.95423016 6.81551239 -0.47918417 3.40749651 0 0 Z " fill="#46C552" transform="translate(713,392)"/>
<path d="M0 0 C2.475 0.495 2.475 0.495 5 1 C3.80070734 3.39858532 2.62428024 4.09297001 0.4375 5.625 C-4.16627998 8.98834016 -8.07144598 12.88337691 -12 17 C-12.99 16.34 -13.98 15.68 -15 15 C-11.15159847 11.02745649 -7.07173193 7.38992682 -2.890625 3.76953125 C-0.92091997 2.13136012 -0.92091997 2.13136012 0 0 Z " fill="#3BA541" transform="translate(680,392)"/>
<path d="M0 0 C0 3 0 3 -1.375 4.8125 C-3.16490679 6.95534444 -3.16490679 6.95534444 -3.8125 9.8125 C-5.39215205 14.05261865 -7.98054177 16.70000531 -11 20 C-11.96488655 21.14032046 -12.92378824 22.28574786 -13.875 23.4375 C-14.57625 24.283125 -15.2775 25.12875 -16 26 C-16 22.40239524 -15.10487704 21.7784377 -13 19 C-12.85369141 18.36795654 -12.70738281 17.73591309 -12.55664062 17.0847168 C-11.9294782 14.73588349 -11.04694156 13.4687628 -9.53125 11.58203125 C-9.04269531 10.96779297 -8.55414063 10.35355469 -8.05078125 9.72070312 C-7.53902344 9.09099609 -7.02726562 8.46128906 -6.5 7.8125 C-5.98824219 7.17119141 -5.47648437 6.52988281 -4.94921875 5.86914062 C-1.25979663 1.25979663 -1.25979663 1.25979663 0 0 Z " fill="#08435E" transform="translate(404,528)"/>
<path d="M0 0 C0.33 0 0.66 0 1 0 C1 9.24 1 18.48 1 28 C1.66 28 2.32 28 3 28 C3.19294408 32.82360189 2.75747614 36.49646738 1 41 C-0.90509837 37.77714584 -1.24345175 35.47333465 -1.1875 31.75 C-1.17074219 30.62722656 -1.15398437 29.50445313 -1.13671875 28.34765625 C-0.86663708 18.89479792 -0.43426762 9.44647579 0 0 Z " fill="#072464" transform="translate(337,506)"/>
<path d="M0 0 C-11.71875 5.859375 -11.71875 5.859375 -13.8515625 6.91992188 C-15.31098798 7.65361487 -16.76398222 8.4002133 -18.2109375 9.15820312 C-18.91476562 9.52365234 -19.61859375 9.88910156 -20.34375 10.265625 C-20.97474609 10.59852539 -21.60574219 10.93142578 -22.25585938 11.27441406 C-24 12 -24 12 -27 12 C-26.67 9.36 -26.34 6.72 -26 4 C-25.67 4 -25.34 4 -25 4 C-24.67 5.65 -24.34 7.3 -24 9 C-23.21625 8.4225 -22.4325 7.845 -21.625 7.25 C-18.09463708 4.87961347 -14.33229659 3.42432364 -10.3671875 1.9296875 C-8.00004221 1.0666992 -8.00004221 1.0666992 -5.9453125 -0.1796875 C-3.52552274 -1.20008077 -2.46040184 -0.7220675 0 0 Z " fill="#133069" transform="translate(363,693)"/>
<path d="M0 0 C0.66 0.33 1.32 0.66 2 1 C1.58113525 1.41362793 1.16227051 1.82725586 0.73071289 2.25341797 C-1.16129409 4.12466831 -3.04943185 5.99977585 -4.9375 7.875 C-5.59685547 8.52597656 -6.25621094 9.17695312 -6.93554688 9.84765625 C-7.56396484 10.47285156 -8.19238281 11.09804688 -8.83984375 11.7421875 C-9.42113037 12.3182373 -10.00241699 12.89428711 -10.60131836 13.48779297 C-12.09951936 14.96652475 -12.09951936 14.96652475 -13 17 C-13.66 17 -14.32 17 -15 17 C-16.18695553 20.56086658 -16.35095418 23.97331024 -16.5625 27.6875 C-16.60568359 28.38939453 -16.64886719 29.09128906 -16.69335938 29.81445312 C-16.7991736 31.54275206 -16.90006581 33.2713511 -17 35 C-17.33 35 -17.66 35 -18 35 C-19.18145519 29.2385827 -19.91777937 23.67095928 -18 18 C-13.18990798 10.99758025 -6.47877476 5.42099608 0 0 Z " fill="#0D2358" transform="translate(355,662)"/>
<path d="M0 0 C0.66 0.66 1.32 1.32 2 2 C1.34 2 0.68 2 0 2 C0 2.99 0 3.98 0 5 C-1.28515625 6.32421875 -1.28515625 6.32421875 -3.0625 7.6875 C-5.86687525 9.96040091 -8.23188578 12.30530014 -10.5625 15.0625 C-13.45902319 18.47672756 -16.47360212 21.24768946 -20 24 C-20 23.01 -20 22.02 -20 21 C-19.34 21 -18.68 21 -18 21 C-17.34 19.68 -16.68 18.36 -16 17 C-15.34 17 -14.68 17 -14 17 C-13.773125 16.44441406 -13.54625 15.88882813 -13.3125 15.31640625 C-11.62302816 12.33468957 -9.46497875 10.3129083 -7 7.9375 C-4.31789712 5.34506045 -2.07210825 3.10816238 0 0 Z " fill="#0B3B6F" transform="translate(439,574)"/>
<path d="M0 0 C0.33 0.66 0.66 1.32 1 2 C0.37351562 2.74765625 -0.25296875 3.4953125 -0.8984375 4.265625 C-1.71570313 5.25046875 -2.53296875 6.2353125 -3.375 7.25 C-4.59316406 8.71179688 -4.59316406 8.71179688 -5.8359375 10.203125 C-7.59034864 12.4705589 -8.80667212 14.42975533 -10 17 C-11.625 18.75 -11.625 18.75 -13 20 C-13.66 19.67 -14.32 19.34 -15 19 C-14.360625 18.2575 -13.72125 17.515 -13.0625 16.75 C-10.91770126 14.28670998 -10.91770126 14.28670998 -10.5625 12 C-9.66775723 8.81869239 -7.38119733 7.21884296 -5 5 C-3.6078125 3.6078125 -3.6078125 3.6078125 -2.1875 2.1875 C-1.1046875 1.1046875 -1.1046875 1.1046875 0 0 Z " fill="#026976" transform="translate(415,516)"/>
<path d="M0 0 C0.66 0.33 1.32 0.66 2 1 C1.67 2.98 1.34 4.96 1 7 C0.01 6.67 -0.98 6.34 -2 6 C-4.03281995 6.84216513 -4.03281995 6.84216513 -6.125 8.1875 C-9.34254117 10.06747087 -12.55123824 11.81589725 -15.9375 13.375 C-17.03384766 13.88160156 -17.03384766 13.88160156 -18.15234375 14.3984375 C-20 15 -20 15 -22 14 C-21.43490723 13.70754395 -20.86981445 13.41508789 -20.28759766 13.11376953 C-17.73136334 11.7880615 -15.17816553 10.45660789 -12.625 9.125 C-11.73554688 8.66480469 -10.84609375 8.20460938 -9.9296875 7.73046875 C-8.65351563 7.06337891 -8.65351563 7.06337891 -7.3515625 6.3828125 C-6.17327881 5.77010498 -6.17327881 5.77010498 -4.97119141 5.14501953 C-2.5659863 3.74789147 -1.24767695 2.4953539 0 0 Z " fill="#084FA2" transform="translate(438,305)"/>
<path d="M0 0 C0.33 0 0.66 0 1 0 C1.10655578 6.44070471 0.96205088 12.62641289 0 19 C-0.99 18.34 -1.98 17.68 -3 17 C-2.67 12.38 -2.34 7.76 -2 3 C-1.34 3 -0.68 3 0 3 C0 2.01 0 1.02 0 0 Z " fill="#3DA840" transform="translate(718,363)"/>
<path d="M0 0 C0 4.2090824 -2.28197091 6.55394641 -4.6875 9.8125 C-5.12255859 10.41642578 -5.55761719 11.02035156 -6.00585938 11.64257812 C-8.85516957 15.56407319 -11.86105692 19.3067931 -15 23 C-15.66 22.67 -16.32 22.34 -17 22 C-11.35424043 14.65028885 -5.70169826 7.30648089 0 0 Z " fill="#0A335F" transform="translate(434,464)"/>
<path d="M0 0 C1.32 0.33 2.64 0.66 4 1 C3.12590096 4.84603578 2.52866961 6.60657145 -0.6875 9 C-2.3271875 9.99 -2.3271875 9.99 -4 11 C-6.39071191 12.93556636 -8.69963849 14.95825901 -11 17 C-8.67284743 12.0346929 -5.17454411 7.57818067 -1 4 C-0.34 4 0.32 4 1 4 C0.67 2.68 0.34 1.36 0 0 Z " fill="#09468E" transform="translate(384,608)"/>
<path d="M0 0 C4.73438031 7.95301041 1.7952427 20.19552726 1 29 C0.67 29 0.34 29 0 29 C-0.75406186 19.20879681 -1.22598899 9.78905055 0 0 Z " fill="#082665" transform="translate(337,548)"/>
<path d="M0 0 C0.66 0.33 1.32 0.66 2 1 C0.12818806 2.89907134 -1.74730056 4.79426404 -3.625 6.6875 C-4.14707031 7.21794922 -4.66914062 7.74839844 -5.20703125 8.29492188 C-8.64737462 11.75650194 -12.2059236 14.92941865 -16 18 C-16.66 17.67 -17.32 17.34 -18 17 C-13.76676966 12.64771006 -9.40978477 8.52677576 -4.796875 4.578125 C-3.12659942 3.11118731 -1.55211328 1.59043707 0 0 Z " fill="#025EB1" transform="translate(630,477)"/>
<path d="M0 0 C0.33 0.99 0.66 1.98 1 3 C-1.45570175 4.33838733 -3.91429916 5.67086232 -6.375 7 C-7.42300781 7.57234375 -7.42300781 7.57234375 -8.4921875 8.15625 C-13.7734375 11 -13.7734375 11 -16 11 C-16 10.34 -16 9.68 -16 9 C-14.39318359 8.15115234 -14.39318359 8.15115234 -12.75390625 7.28515625 C-11.3567202 6.54436633 -9.95958753 5.80347571 -8.5625 5.0625 C-7.85544922 4.68931641 -7.14839844 4.31613281 -6.41992188 3.93164062 C-2.99521342 2.27507665 -2.99521342 2.27507665 0 0 Z " fill="#0E3B7A" transform="translate(684,651)"/>
<path d="M0 0 C0.66 0.33 1.32 0.66 2 1 C-3.4815829 6.58084697 -8.96668638 12.01595832 -15 17 C-15.66 16.67 -16.32 16.34 -17 16 C-12.35344118 11.24222036 -7.61171109 6.68207665 -2.56640625 2.34765625 C-1.68751602 1.59150381 -0.81982149 0.81982149 0 0 Z " fill="#197A3E" transform="translate(598,469)"/>
<path d="M0 0 C-0.66 0 -1.32 0 -2 0 C-2 0.66 -2 1.32 -2 2 C-7.61 3.32 -13.22 4.64 -19 6 C-19 5.34 -19 4.68 -19 4 C-16.58732675 3.132758 -14.17095531 2.28103064 -11.75 1.4375 C-11.06808594 1.19064453 -10.38617187 0.94378906 -9.68359375 0.68945312 C-3.41657839 -1.47053761 -3.41657839 -1.47053761 0 0 Z " fill="#3D9D33" transform="translate(625,311)"/>
<path d="M0 0 C0 5.29108517 -3.20965947 9.09399988 -6.5625 12.9375 C-9 15 -9 15 -12 15 C-10.37676928 12.87362766 -8.7515047 10.74886564 -7.125 8.625 C-6.66480469 8.02171875 -6.20460938 7.4184375 -5.73046875 6.796875 C-3.90627059 4.41748609 -2.12258788 2.12258788 0 0 Z " fill="#0A385F" transform="translate(391,545)"/>
<path d="M0 0 C0.66 0.33 1.32 0.66 2 1 C-0.09596714 3.00925808 -2.20087926 5.00731221 -4.3125 7 C-5.20485352 7.85851562 -5.20485352 7.85851562 -6.11523438 8.734375 C-6.98051758 9.54648437 -6.98051758 9.54648437 -7.86328125 10.375 C-8.39219971 10.87773437 -8.92111816 11.38046875 -9.46606445 11.8984375 C-11 13 -11 13 -14 13 C-9.55618306 8.41283413 -4.79771501 4.21237287 0 0 Z " fill="#0266C2" transform="translate(679,434)"/>
<path d="M0 0 C0.33 0 0.66 0 1 0 C1.05437607 1.58294782 1.09296271 3.16644256 1.125 4.75 C1.14820313 5.63171875 1.17140625 6.5134375 1.1953125 7.421875 C0.99139502 10.1135858 0.36551721 11.69904974 -1 14 C-1.86375896 12.38007835 -2.71575854 10.75388139 -3.5625 9.125 C-4.03816406 8.22007812 -4.51382813 7.31515625 -5.00390625 6.3828125 C-5.33261719 5.59648437 -5.66132812 4.81015625 -6 4 C-5.67 3.34 -5.34 2.68 -5 2 C-3.35 3.65 -1.7 5.3 0 7 C0 4.69 0 2.38 0 0 Z " fill="#3FC45C" transform="translate(709,424)"/>
<path d="M0 0 C0.66 0.33 1.32 0.66 2 1 C0.65463623 5.4030087 -1.16052312 7.471564 -5 10 C-5.99 10 -6.98 10 -8 10 C-8 9.34 -8 8.68 -8 8 C-6.52295788 6.74772516 -5.04172601 5.49833478 -3.5078125 4.31640625 C-1.73237056 2.88235909 -1.73237056 2.88235909 0 0 Z " fill="#066E6F" transform="translate(440,552)"/>
<path d="M0 0 C0.33 0.99 0.66 1.98 1 3 C-0.2578125 4.83203125 -0.2578125 4.83203125 -2.125 6.8125 C-3.08986328 7.85857422 -3.08986328 7.85857422 -4.07421875 8.92578125 C-4.70972656 9.61027344 -5.34523438 10.29476562 -6 11 C-6.9882124 12.15901455 -7.96875573 13.32466473 -8.9375 14.5 C-9.9584375 15.7375 -9.9584375 15.7375 -11 17 C-11 13.28294034 -10.0552566 12.46298396 -7.75 9.625 C-7.11449219 8.83480469 -6.47898437 8.04460938 -5.82421875 7.23046875 C-5.22222656 6.49441406 -4.62023437 5.75835938 -4 5 C-3.195625 3.989375 -2.39125 2.97875 -1.5625 1.9375 C-1.046875 1.298125 -0.53125 0.65875 0 0 Z " fill="#01678A" transform="translate(399,537)"/>
<path d="M0 0 C2 3 2 3 2 5 C1.01 4.67 0.02 4.34 -1 4 C-1.721875 4.78375 -2.44375 5.5675 -3.1875 6.375 C-5.83299041 8.84412438 -7.60373611 9.93260278 -11 11 C-7.6381774 6.74828319 -4.25171681 3.3618226 0 0 Z " fill="#135B85" transform="translate(684,427)"/>
<path d="M0 0 C-3.0622744 2.48627517 -6.1457054 4.09989404 -9.75 5.6875 C-10.73484375 6.12449219 -11.7196875 6.56148437 -12.734375 7.01171875 C-13.48203125 7.33785156 -14.2296875 7.66398438 -15 8 C-15.33 7.34 -15.66 6.68 -16 6 C-13.9021477 4.79994469 -11.7979751 3.61497017 -9.6875 2.4375 C-8.79514648 1.92413086 -8.79514648 1.92413086 -7.88476562 1.40039062 C-3.33984375 -1.11328125 -3.33984375 -1.11328125 0 0 Z " fill="#0C3373" transform="translate(645,673)"/>
<path d="M0 0 C0 4.12036206 -1.6993277 5.43252807 -4.3125 8.5625 C-5.11300781 9.53316406 -5.91351562 10.50382812 -6.73828125 11.50390625 C-9 14 -9 14 -12 16 C-10.37921571 12.27131047 -8.02767716 9.42653322 -5.4375 6.3125 C-4.63183594 5.33925781 -3.82617188 4.36601562 -2.99609375 3.36328125 C-1 1 -1 1 0 0 Z " fill="#2C8A2E" transform="translate(599,368)"/>
<path d="M0 0 C2.24959782 4.49919565 2.07922275 6.34439425 1.625 11.25 C1.51414062 12.51328125 1.40328125 13.7765625 1.2890625 15.078125 C1.19367188 16.04234375 1.09828125 17.0065625 1 18 C0.67 17.34 0.34 16.68 0 16 C-0.66 15.67 -1.32 15.34 -2 15 C-2 13.68 -2 12.36 -2 11 C-1.34 11 -0.68 11 0 11 C0 7.37 0 3.74 0 0 Z " fill="#0D337A" transform="translate(338,566)"/>
<path d="M0 0 C0.66 0 1.32 0 2 0 C2 5.61 2 11.22 2 17 C1.01 17 0.02 17 -1 17 C-0.67 11.39 -0.34 5.78 0 0 Z " fill="#51C64A" transform="translate(718,349)"/>
<path d="M0 0 C1.65 0.33 3.3 0.66 5 1 C1.77961973 3.14692018 -1.43774639 4.50010374 -5 6 C-5.721875 6.433125 -6.44375 6.86625 -7.1875 7.3125 C-7.785625 7.539375 -8.38375 7.76625 -9 8 C-11.11328125 7.04296875 -11.11328125 7.04296875 -13 6 C-11.71802734 5.60167969 -11.71802734 5.60167969 -10.41015625 5.1953125 C-9.30542969 4.84210938 -8.20070313 4.48890625 -7.0625 4.125 C-5.96035156 3.77695312 -4.85820313 3.42890625 -3.72265625 3.0703125 C-0.87121196 2.29975705 -0.87121196 2.29975705 0 0 Z " fill="#56BF42" transform="translate(663,296)"/>
<path d="M0 0 C-1.42598708 3.15703606 -3.1629134 5.58028568 -5.4375 8.1875 C-6.33275391 9.22970703 -6.33275391 9.22970703 -7.24609375 10.29296875 C-9 12 -9 12 -12 13 C-10.43909056 9.16867684 -7.8924866 6.8924866 -5 4 C-4.67 3.01 -4.34 2.02 -4 1 C-2 0 -2 0 0 0 Z " fill="#083B5E" transform="translate(418,579)"/>
<path d="M0 0 C0.66 0.66 1.32 1.32 2 2 C-0.64 4.64 -3.28 7.28 -6 10 C-6.99 9.67 -7.98 9.34 -9 9 C-6.03 6.03 -3.06 3.06 0 0 Z " fill="#10306B" transform="translate(364,652)"/>
<path d="M0 0 C0.66 0.66 1.32 1.32 2 2 C1.34 2 0.68 2 0 2 C0 2.99 0 3.98 0 5 C-1.42578125 6.5 -1.42578125 6.5 -3.3125 8 C-5.67486744 9.90178008 -7.89016786 11.81875816 -10 14 C-10 11 -10 11 -8.3203125 9.0625 C-7.59585937 8.381875 -6.87140625 7.70125 -6.125 7 C-3.69915419 4.704576 -1.86499904 2.79749856 0 0 Z " fill="#114B74" transform="translate(439,574)"/>
<path d="M0 0 C1.90845703 0.17982422 1.90845703 0.17982422 3.85546875 0.36328125 C4.83128906 0.47027344 5.80710937 0.57726562 6.8125 0.6875 C6.8125 1.0175 6.8125 1.3475 6.8125 1.6875 C4.68812788 1.88198477 2.56296809 2.06788289 0.4375 2.25 C-0.74585938 2.35441406 -1.92921875 2.45882812 -3.1484375 2.56640625 C-6.1875 2.6875 -6.1875 2.6875 -8.1875 1.6875 C-8.47625 2.326875 -8.765 2.96625 -9.0625 3.625 C-10.1875 5.6875 -10.1875 5.6875 -12.1875 6.6875 C-9.26749807 0.17364954 -7.22195852 -0.7288215 0 0 Z " fill="#0E8967" transform="translate(465.1875,533.3125)"/>
<path d="M0 0 C0.99 0 1.98 0 3 0 C2.690625 0.763125 2.38125 1.52625 2.0625 2.3125 C1.32106407 4.18789677 0.63771783 6.08684652 0 8 C-1.62890625 9.38671875 -1.62890625 9.38671875 -3.5625 10.6875 C-4.52349609 11.34298828 -4.52349609 11.34298828 -5.50390625 12.01171875 C-5.99761719 12.33785156 -6.49132812 12.66398437 -7 13 C-5.88193568 10.48435529 -4.70466017 8.64201233 -2.9375 6.5 C-1.13355073 4.17232353 -0.42308458 2.8558209 0 0 Z " fill="#44B341" transform="translate(600,366)"/>
<path d="M0 0 C0.33 0.99 0.66 1.98 1 3 C-1.64 5.97 -4.28 8.94 -7 12 C-7.33 10.68 -7.66 9.36 -8 8 C-5.33333333 5.33333333 -2.66666667 2.66666667 0 0 Z " fill="#074D8D" transform="translate(375,568)"/>
<path d="M0 0 C0.66 0 1.32 0 2 0 C2 2 2 2 0.35546875 3.7265625 C-0.35996094 4.35304688 -1.07539062 4.97953125 -1.8125 5.625 C-2.87404297 6.57246094 -2.87404297 6.57246094 -3.95703125 7.5390625 C-6 9 -6 9 -9 9 C-7.53471687 5.13698083 -5.55307561 3.95419158 -2 2 C-1.34 1.34 -0.68 0.68 0 0 Z " fill="#3CBC4E" transform="translate(647,422)"/>
<path d="M0 0 C-8.261959 4.59225513 -8.261959 4.59225513 -13 4 C-13.33 3.01 -13.66 2.02 -14 1 C-11.02148438 0.65820312 -11.02148438 0.65820312 -8.04296875 0.31640625 C-1.90339426 -0.63446475 -1.90339426 -0.63446475 0 0 Z " fill="#4EB63D" transform="translate(617,315)"/>
<path d="M0 0 C0.66 0.33 1.32 0.66 2 1 C0.71284028 2.64936048 -0.57987019 4.29439047 -1.875 5.9375 C-2.95394531 7.31228516 -2.95394531 7.31228516 -4.0546875 8.71484375 C-6 11 -6 11 -8 12 C-6.49087042 7.01987239 -3.44338151 3.75740058 0 0 Z " fill="#095251" transform="translate(433,490)"/>
<path d="M0 0 C0.66 0.33 1.32 0.66 2 1 C1.50628906 1.47050781 1.01257813 1.94101562 0.50390625 2.42578125 C-0.13675781 3.04839844 -0.77742187 3.67101562 -1.4375 4.3125 C-2.07558594 4.92738281 -2.71367188 5.54226563 -3.37109375 6.17578125 C-5.2221418 8.00644056 -5.2221418 8.00644056 -6 11 C-6.99 10.34 -7.98 9.68 -9 9 C-6 6 -3 3 0 0 Z " fill="#44B84A" transform="translate(674,398)"/>
<path d="M0 0 C0.33 0.99 0.66 1.98 1 3 C-1.31 5.31 -3.62 7.62 -6 10 C-6 6.70776216 -5.49481868 4.91489643 -4 2 C-1.875 0.6875 -1.875 0.6875 0 0 Z " fill="#40B041" transform="translate(590,381)"/>
<path d="M0 0 C-1.65091778 4.29238623 -4.73754566 6.8793915 -8 10 C-8.66 9.67 -9.32 9.34 -10 9 C-9.195625 8.236875 -8.39125 7.47375 -7.5625 6.6875 C-4.83200976 4.20569102 -4.83200976 4.20569102 -4 1 C-2 0 -2 0 0 0 Z " fill="#094F5C" transform="translate(435,561)"/>
<path d="M0 0 C0.33 0 0.66 0 1 0 C1.28875 1.11375 1.5775 2.2275 1.875 3.375 C2.69241329 7.00291092 2.69241329 7.00291092 5 9 C2.69 9.33 0.38 9.66 -2 10 C-1.34 6.7 -0.68 3.4 0 0 Z " fill="#1B3B72" transform="translate(570,699)"/>
<path d="M0 0 C-1.38188453 3.21043882 -2.92421903 5.04936365 -5.625 7.25 C-6.57246094 8.03117188 -6.57246094 8.03117188 -7.5390625 8.828125 C-8.02117187 9.21484375 -8.50328125 9.6015625 -9 10 C-8.67 8.68 -8.34 7.36 -8 6 C-7.34 6 -6.68 6 -6 6 C-5.67 5.01 -5.34 4.02 -5 3 C-2.44444444 0 -2.44444444 0 0 0 Z " fill="#016691" transform="translate(414,581)"/>
<path d="M0 0 C0.66 0 1.32 0 2 0 C3.35384615 6.4 3.35384615 6.4 1.5625 9.4375 C1.046875 9.953125 0.53125 10.46875 0 11 C-1.35015859 6.94952424 -0.62084998 4.2079832 0 0 Z " fill="#40BA52" transform="translate(710,414)"/>
<path d="M0 0 C0.99 0.33 1.98 0.66 3 1 C1.68 2.32 0.36 3.64 -1 5 C-1.66 4.67 -2.32 4.34 -3 4 C-3 4.66 -3 5.32 -3 6 C-3.66 5.67 -4.32 5.34 -5 5 C-3.35 3.35 -1.7 1.7 0 0 Z " fill="#07507F" transform="translate(404,591)"/>
<path d="M0 0 C0.66 0 1.32 0 2 0 C3.05404945 3.98196457 2.84098656 6.98195309 2 11 C-0.32590854 7.36576791 -0.16265833 4.22911669 0 0 Z " fill="#42A839" transform="translate(723,311)"/>
<path d="M0 0 C1.98 0 3.96 0 6 0 C3.88229834 2.32947183 1.96664412 3.88750845 -1 5 C-1.99 4.67 -2.98 4.34 -4 4 C-2.68 3.67 -1.36 3.34 0 3 C0 2.01 0 1.02 0 0 Z " fill="#0C489C" transform="translate(424,656)"/>
<path d="M0 0 C0.33 0 0.66 0 1 0 C1.2236337 1.41433206 1.42826476 2.83167618 1.625 4.25 C1.74101562 5.03890625 1.85703125 5.8278125 1.9765625 6.640625 C2.00319395 9.32152459 1.36592084 10.72694089 0 13 C0 11.68 0 10.36 0 9 C-0.66 8.67 -1.32 8.34 -2 8 C-1.34 8 -0.68 8 0 8 C0 5.36 0 2.72 0 0 Z " fill="#0D3986" transform="translate(338,469)"/>
<path d="M0 0 C0.66 0 1.32 0 2 0 C0.60667426 3.36720387 -0.9789286 4.9859524 -4 7 C-3.67 5.35 -3.34 3.7 -3 2 C-2.01 2 -1.02 2 0 2 C0 1.34 0 0.68 0 0 Z " fill="#073D6E" transform="translate(401,595)"/>
<path d="M0 0 C0.33 0 0.66 0 1 0 C2.25 7.625 2.25 7.625 0 11 C-0.19491452 9.54263913 -0.38069358 8.08405407 -0.5625 6.625 C-0.66691406 5.81289063 -0.77132813 5.00078125 -0.87890625 4.1640625 C-1 2 -1 2 0 0 Z " fill="#0C2A68" transform="translate(337,528)"/>
<path d="M0 0 C2.475 0.495 2.475 0.495 5 1 C5.33 2.65 5.66 4.3 6 6 C3.5625 5.25 3.5625 5.25 1 4 C0.1875 1.875 0.1875 1.875 0 0 Z " fill="#44A63A" transform="translate(594,360)"/>
<path d="M0 0 C0.33 0.66 0.66 1.32 1 2 C-0.98 4.31 -2.96 6.62 -5 9 C-5 4.61031544 -2.87194899 3.23094261 0 0 Z " fill="#089D6A" transform="translate(455,464)"/>
<path d="M0 0 C0.99 0 1.98 0 3 0 C1.73058503 3.91402949 0.48832306 5.79072873 -3 8 C-1.125 2.25 -1.125 2.25 0 0 Z " fill="#39AA44" transform="translate(568,405)"/>
<path d="" fill="#1F5590" transform="translate(0,0)"/>
<path d="M0 0 C0.99 0.495 0.99 0.495 2 1 C1.01 1.495 1.01 1.495 0 2 C0 1.34 0 0.68 0 0 Z " fill="#4CAE4A" transform="translate(569,400)"/>
<path d="" fill="#59B954" transform="translate(0,0)"/>
<path d="M0 0 C0.99 0.495 0.99 0.495 2 1 C1.01 1.495 1.01 1.495 0 2 C0 1.34 0 0.68 0 0 Z " fill="#61BB4E" transform="translate(724,338)"/>
<path d="" fill="#62BD4D" transform="translate(0,0)"/>
<path d="M0 0 C2 1 2 1 2 1 Z " fill="#214583" transform="translate(341,673)"/>
<path d="" fill="#1F4F8E" transform="translate(0,0)"/>
<path d="" fill="#1D4F8E" transform="translate(0,0)"/>
<path d="" fill="#21608B" transform="translate(0,0)"/>
<path d="" fill="#46A966" transform="translate(0,0)"/>
<path d="M0 0 C2 1 2 1 2 1 Z " fill="#56B249" transform="translate(585,359)"/>
<path d="M0 0 C2 1 2 1 2 1 Z " fill="#1B4C8D" transform="translate(361,344)"/>
<path d="M0 0 C2 1 2 1 2 1 Z " fill="#5EB547" transform="translate(609,312)"/>
<path d="M0 0 C2 1 2 1 2 1 Z " fill="#65B94A" transform="translate(657,296)"/>
<path d="" fill="#555757" transform="translate(0,0)"/>
<path d="" fill="#294E88" transform="translate(0,0)"/>
<path d="" fill="#154F96" transform="translate(0,0)"/>
<path d="" fill="#234C8D" transform="translate(0,0)"/>
<path d="" fill="#214D8B" transform="translate(0,0)"/>
<path d="" fill="#21498B" transform="translate(0,0)"/>
<path d="" fill="#1D4386" transform="translate(0,0)"/>
<path d="" fill="#1F4C8E" transform="translate(0,0)"/>
<path d="" fill="#204D8D" transform="translate(0,0)"/>
<path d="" fill="#204D8E" transform="translate(0,0)"/>
<path d="" fill="#1F4F8F" transform="translate(0,0)"/>
<path d="" fill="#1F518E" transform="translate(0,0)"/>
<path d="" fill="#155FAE" transform="translate(0,0)"/>
<path d="" fill="#1E548F" transform="translate(0,0)"/>
<path d="" fill="#15668A" transform="translate(0,0)"/>
<path d="" fill="#20578E" transform="translate(0,0)"/>
<path d="" fill="#20588F" transform="translate(0,0)"/>
<path d="" fill="#1C797F" transform="translate(0,0)"/>
<path d="" fill="#1E578B" transform="translate(0,0)"/>
<path d="" fill="#208A73" transform="translate(0,0)"/>
<path d="" fill="#218A71" transform="translate(0,0)"/>
<path d="" fill="#0F528C" transform="translate(0,0)"/>
<path d="" fill="#206589" transform="translate(0,0)"/>
<path d="" fill="#2F9264" transform="translate(0,0)"/>
<path d="" fill="#276F8B" transform="translate(0,0)"/>
<path d="" fill="#1F6A8A" transform="translate(0,0)"/>
<path d="" fill="#0E6B85" transform="translate(0,0)"/>
<path d="" fill="#32966D" transform="translate(0,0)"/>
<path d="" fill="#2F9A61" transform="translate(0,0)"/>
<path d="" fill="#32A065" transform="translate(0,0)"/>
<path d="" fill="#115E8D" transform="translate(0,0)"/>
<path d="" fill="#12757F" transform="translate(0,0)"/>
<path d="" fill="#1E7A92" transform="translate(0,0)"/>
<path d="" fill="#167A77" transform="translate(0,0)"/>
<path d="" fill="#13638C" transform="translate(0,0)"/>
<path d="" fill="#339E62" transform="translate(0,0)"/>
<path d="" fill="#1D7B93" transform="translate(0,0)"/>
<path d="" fill="#369A5D" transform="translate(0,0)"/>
<path d="" fill="#359C65" transform="translate(0,0)"/>
<path d="" fill="#329F65" transform="translate(0,0)"/>
<path d="" fill="#33A065" transform="translate(0,0)"/>
<path d="" fill="#37A25C" transform="translate(0,0)"/>
<path d="" fill="#248391" transform="translate(0,0)"/>
<path d="" fill="#3EA65D" transform="translate(0,0)"/>
<path d="" fill="#278693" transform="translate(0,0)"/>
<path d="" fill="#41AB5D" transform="translate(0,0)"/>
<path d="" fill="#319288" transform="translate(0,0)"/>
<path d="" fill="#45A44C" transform="translate(0,0)"/>
<path d="" fill="#43A56A" transform="translate(0,0)"/>
<path d="" fill="#42AD5A" transform="translate(0,0)"/>
<path d="" fill="#42A16C" transform="translate(0,0)"/>
<path d="" fill="#43A66B" transform="translate(0,0)"/>
<path d="" fill="#409A7B" transform="translate(0,0)"/>
<path d="" fill="#409E79" transform="translate(0,0)"/>
<path d="" fill="#409E79" transform="translate(0,0)"/>
<path d="" fill="#45AC57" transform="translate(0,0)"/>
<path d="" fill="#4EB454" transform="translate(0,0)"/>
<path d="" fill="#4AAF4A" transform="translate(0,0)"/>
<path d="" fill="#4EB456" transform="translate(0,0)"/>
<path d="" fill="#4DB452" transform="translate(0,0)"/>
<path d="" fill="#4DAA47" transform="translate(0,0)"/>
<path d="" fill="#58B954" transform="translate(0,0)"/>
<path d="" fill="#58B655" transform="translate(0,0)"/>
<path d="" fill="#51B146" transform="translate(0,0)"/>
<path d="" fill="#5CB754" transform="translate(0,0)"/>
<path d="" fill="#55B645" transform="translate(0,0)"/>
<path d="" fill="#214B8B" transform="translate(0,0)"/>
<path d="" fill="#57B247" transform="translate(0,0)"/>
<path d="" fill="#5E7E51" transform="translate(0,0)"/>
<path d="" fill="#57AF46" transform="translate(0,0)"/>
<path d="" fill="#58AC4A" transform="translate(0,0)"/>
<path d="" fill="#195191" transform="translate(0,0)"/>
<path d="" fill="#1F4F92" transform="translate(0,0)"/>
<path d="" fill="#58AF48" transform="translate(0,0)"/>
<path d="" fill="#5FB347" transform="translate(0,0)"/>
<path d="" fill="#61B846" transform="translate(0,0)"/>
<path d="" fill="#1E5899" transform="translate(0,0)"/>
<path d="" fill="#1E5B9B" transform="translate(0,0)"/>
<path d="" fill="#61B847" transform="translate(0,0)"/>
<path d="" fill="#67B84E" transform="translate(0,0)"/>
<path d="" fill="#66BD4A" transform="translate(0,0)"/>
<path d="" fill="#67BC49" transform="translate(0,0)"/>
<path d="" fill="#65BC48" transform="translate(0,0)"/>
<path d="" fill="#6ABE4C" transform="translate(0,0)"/>
<path d="" fill="#67BD4B" transform="translate(0,0)"/>
<path d="" fill="#65BC4B" transform="translate(0,0)"/>
<path d="" fill="#68B44D" transform="translate(0,0)"/>
<path d="" fill="#5F615F" transform="translate(0,0)"/>
<path d="" fill="#5E605C" transform="translate(0,0)"/>
</svg>
